<svg xmlns="http://www.w3.org/2000/svg" viewBox="0 0 1480.35 939.94"><defs><style>.cls-1{fill:#323232;}.cls-2{fill:#f9f9f9;}.cls-3{fill:#be4e62;}</style></defs><g id="Vrstva_2" data-name="Vrstva 2"><g id="Vrstva_1-2" data-name="Vrstva 1"><g id="Vrstva_4" data-name="Vrstva 4"><g id="Vrstva_2-2" data-name="Vrstva 2"><path class="cls-1" d="M408,602.74s-.9.7-2.4,1.9a7.73,7.73,0,0,1,2.7-.8A2.9,2.9,0,0,0,408,602.74Z"/><path class="cls-2" d="M937.15,602.24a10.47,10.47,0,0,0-8.2,4.1l-30.8,37.5a331.42,331.42,0,0,1-40.1,35.5c-15.4,11.8-29.3,21.1-34.4,21.1-4.1,0-7.7-2.1-7.2-6.7,0-2.6,1-4.6,1.5-6.7,11.8-28.8,29.8-55,48.3-80.2,1.5-2.1,2.6-4.1,1.5-6.2-.5-.5-1-1.5-2.1-1.5-4.1-2.6-9.2-.5-13.4,2.1-6.7,4.1-12.9,9.8-18.5,15.9-17.5,19-32.9,40.1-48.8,60.1-14.9,19-32.4,43.7-55,54.5,1-4.1,1.5-8.7,2.1-12.9v-7.2c-.5-8.7-5.7-16.4-12.8-21.1a48.58,48.58,0,0,0-26.2-9.2,58,58,0,0,0-18.5,1.5,312.22,312.22,0,0,0,34.9-28.8c17-15.4,25.7-27.2,25.7-34.9s-5.1-11.3-15.9-11.3a48.28,48.28,0,0,0-12.8,2.1,24.18,24.18,0,0,0,3.1-15.9c-4.1-13.4-26.7-8.7-36.5-5.7l-4.1,1.5c-.5.5-1.6.5-2.6,1a44.39,44.39,0,0,0-7.7,3.6,102.86,102.86,0,0,0-15.9,10.3c-5.7,4.6-8.2,8.2-8.2,12.3,0,9.8,10.3,14.9,31.4,14.9a120.7,120.7,0,0,0,19-1.5c-4.1,4.1-7.7,7.7-11.8,11.3-8.7,7.2-26.7,19.5-26.7,19.5l-45.7,31.4c-14.4,6.7-16.4,9.2-21.1,9.2a11.93,11.93,0,0,1-9.2-2.6c-1.5-1.5-2.1-3.6-2.1-6.2a51,51,0,0,1,13.4-30.3,93.34,93.34,0,0,1,22.1-20.5,19.25,19.25,0,0,0,9.8-17c0-5.7-8.7-9.8-26.2-12.8,13.4-15.4,20-29.8,20.6-43.2,0-8.7-3.6-13.4-10.8-13.4-10.8,0-22.6,5.7-34.9,17.5-12.3,11.3-18.5,22.1-18.5,31.3s8.2,16.5,24.7,21.6c-16.4,17.5-68.3,53.4-83.8,60.1-15.4,7.2-27.2,15.4-32.9,15.4s-9.2-1.5-9.2-5.7a123.57,123.57,0,0,1,17.5-28.3c4.6-6.7,9.2-13.4,13.9-19.5,4.6-6.7,10.3-13.9,17-23.1,7.2-9.8,12.3-17,16.4-23.1,0-1.5-3.6-3.1-10.8-4.6a8.07,8.07,0,0,0-7.2,4.1,473.71,473.71,0,0,1-56.5,58.6c-26.2,23.6-50.9,41.6-61.2,41.6-3.6,0-5.6-2.6-5.6-7.7s19.5-32.9,48.8-71.9l2.1-2.6,2.6-3.6a16.47,16.47,0,0,0,3.1-6.7c0-1-4.1-3.1-12.8-5.7a4.1,4.1,0,0,0-1.1.1,7.73,7.73,0,0,0-2.7.8c-.6.5-1.3,1-2,1.6-13.6,10.9-54,43.3-54.7,44.3-25.5,19.2-57,42-71.9,42q-30.6,0-30.6-53.6c0-12.8,2.5-24.3,7.7-34.5q53.55,0,89.5-31.6c23.9-21.1,35.9-42.1,35.9-63.2,0-19.2-10.7-28.7-32-28.7q-55.65,0-130.9,105.4l19.5-47.9,14.6-37.4c1.9-4.5,3.7-9,5.6-13.5,21.8-52.1,46.2-103.3,70.2-154.7,56.9-3.2,107.2-53.8,110-110.7.7-15.2-3.6-33.2-17.8-38.6-17.9-6.7-34.8,11.6-44.9,27.8a1074.69,1074.69,0,0,0-58,106.5c-54.1-19.9-97.8-36.6-141.3-75.1-22.4-19.9-51.4-54.2-63.5-81.6s-15.4-59.6-4.3-87.4,38-50,67.9-50.9c-5.3,1.9-10.6,4.5-13.6,9.2s-2.6,11.9,2,15c3.5,2.3,8.4,1.6,12-.7s6.2-5.7,8.6-9.1c4.9-6.7,9.9-13.5,14.8-20.2,2.5-3.4,5.1-7.6,3.7-11.6-2-5.6-9.8-5.9-15.6-4.6a118.86,118.86,0,0,0-91.4,140.6c11.2,53.3,47.9,97.3,89.7,127.1,42.2,30.2,77.8,44.4,125.3,60.4-35.5,68.5-70.6,143.7-104.7,226.6l-62,149.4a39.17,39.17,0,0,0-2.8,13.4c0,8.9,4.6,13.4,13.9,13.4,4.2,0,7.4-2.9,9.8-8.6q11.85-32.55,35.5-93.9,77.25-124.5,127.4-124.5c14.8,0,22.3,7.2,22.3,21.5s-8.9,28.2-26.8,41.7-42.8,20.1-74.8,20.1c-9.3,0-16,7.2-20.2,21.5a168.81,168.81,0,0,0-6.3,47.4q0,63.15,34.8,63.2c23.4,0,69-32,122-78.5-9,12.8-18.3,25.5-28.2,37.6l-5.3,8.2c-3.5,4.8-5.1,14.8-5.1,20.9,0,7.7,4.6,11.3,13.9,11.3,16.4,0,52.4-26.2,96.1-65.8-4.1,5.7-7.2,9.8-9.2,11.8-2.1,2.6-6.2,8.7-11.8,18a54.44,54.44,0,0,0-9.8,21.1,12.69,12.69,0,0,0,10.8,14.4h3.6c19.5,0,120.2-69.4,140.3-91,6.2,1,11.8,2.1,18,2.6,4.6,0,6.7,1,6.7,2.6s-2.6,4.6-7.7,9.8-11.3,10.3-17.5,15.4c-6.7,6.2-12.9,12.8-17.5,21.1a48,48,0,0,0-8.7,25.2,13.07,13.07,0,0,0,10.8,14.4h3.6c19.5,0,93.5-57,93.5-57,10.8-8.2,21.6-16.5,31.3-25.2,2.1-2.1,4.6-5.7,7.7-7.2,2.6-1.5,5.7-1.5,8.2-2a57.12,57.12,0,0,0,18.5-7.7c1.5,13.9-17.5,28.8-26.2,36.5-7.7,7.2-14.9,12.8-21.6,18.5-6.7,5.1-13.9,10.8-21.6,15.9s-12.3,8.7-14.9,10.8-4.1,3.6-4.1,5.6c0,1.5,1,2.6,3.6,2.6a15.32,15.32,0,0,0,9.2-4.6,64.4,64.4,0,0,1,40.6-12.8,31.94,31.94,0,0,1,19.5,6.2c5.6,3.6,9.2,9.8,9.2,15.9v4.6a120.62,120.62,0,0,1-4.6,19.5q-58.65,22.35-111,84.8c-34.9,41.6-52.4,73.5-52.4,96.1,0,12.9,6.7,19,18.5,19,20.1,0,49.3-22.6,86.8-67.3s63.2-86.3,76.1-124.4c15.4-5.6,28.8-15.4,39.6-27.8,25.2-29.7,45.7-63.2,71.5-92.7-5.6,7.1-9.7,16.8-14.5,23.8-5.7,8.2-11.3,16.4-16.4,25.2s-14.9,21.1-14.9,32.4c0,7.7,4.1,11.3,12.9,11.3,8.2,0,21.1-5.1,37-15.9a485.29,485.29,0,0,0,50.9-40.1l-32.9,56.5-20,34.9c-38.6,10.8-74.5,36-107.9,75s-49.9,69.4-49.9,91.5c0,13.4,6.2,19,18.5,19,13.4,0,24.1-9.2,33.9-17.2,10.3-8.5,20.2-17.9,28.3-28.5a1270.93,1270.93,0,0,0,86.3-129,142.77,142.77,0,0,1,20.6-1.5c7.2,0,10.8,2.1,10.8,6.7a12.65,12.65,0,0,1-6.2,10.8c-4.1,3.1-6.2,5.7-6.2,6.7,0,2.6,2.1,3.6,5.6,3.6s8.7-3.6,15.4-10.3a31.84,31.84,0,0,0,9.8-18c0-9.2-8.7-13.9-26.2-13.9a138.58,138.58,0,0,0-14.4.5l19-30.8c22.1-36,34.9-56,38.5-61.7,4.6-6.7,10.8-16.4,19-28.8,8.2-12.8,12.3-19,12.3-19.5C947.45,604.74,943.85,603.24,937.15,602.24ZM414,204c2.3,0,4.5,2.2,4.5,8.6,0,16.3,0,26-19.7,63.4-13.3,25.1-38.4,44.6-66.8,43.8h-.9C367.85,245.34,398.15,204,414,204Zm141.9,390.4a29.49,29.49,0,0,1,10.8-18.5,34.57,34.57,0,0,1,19-9.8c5.7,0,8.2,4.1,8.2,13.4,0,8.7-4.6,19-14.4,30.3C564.05,606.84,555.85,601.64,555.85,594.44Zm142.8,16A116.64,116.64,0,0,1,672,614c-8.2,0-13.9-1.5-13.9-5.1a14.45,14.45,0,0,1,9.2-10.3l3.6-1h.5l4.1-1c5.6-1,21.6-5.6,25.7-1.5.5.5.5,1.5.5,2.6A27.44,27.44,0,0,1,698.65,610.44Zm-60.1,251.8q-44.7,58.5-66.3,58.6c-5.6,0-8.7-4.6-8.7-13.9s6.2-24.2,18-44.7a326.93,326.93,0,0,1,51.4-63.7,202,202,0,0,1,70.4-46.8A470.41,470.41,0,0,1,638.55,862.24Zm70.9,59.6c-5.6,0-8.7-3.6-8.7-11.3a79.34,79.34,0,0,1,9.2-30.8,254.35,254.35,0,0,1,25.2-41.1,200.06,200.06,0,0,1,41.6-41.6,165.53,165.53,0,0,1,52.9-28.8C768.05,870.44,728,921.84,709.45,921.84Z"/><path class="cls-3" d="M215.85,185.84c-2.4-15.1-16.8-22-28.4-12.6-6.6,5.7-11.5,14.5-14.2,23.1-1.8,5.6-3.7,11.3-5.6,17-1.7,5.2-3.7,11.3-5.8,17.7,2.3,2.4,4.7,4.6,6.9,6.8.7-2.1,1.2-3.9,1.6-5.1h0c3.6-11,7.2-22,11.7-32.5,2-5.5,7.7-12.3,14.1-8.1,3.5,1.8,5.4,9.7,5,14.8s-9.5,29.3-15.7,45.4c-2.3,6-4.2,10.9-5.1,13.2-.2.5-.3.8-.4,1.1-.9,2.5-7,11.1-13.3,9.2-7.1-2.1-6.5-9.3-5-14.8.4-1.7,1.4-4.9,2.5-8.5-2.4-2.1-4.8-4.3-7.2-6.5-4.7,14.3-9.4,28.9-12.7,39.8-23.3,77.5-46.6,154.5-69.9,232-15,49.5-56.9,190.5-74.3,248.5a1.11,1.11,0,0,0,2.1.7c10.5-27.3,25.8-67.7,26.7-70.4,30.1-78.5,60.2-157.5,90.3-236,14.7-38.2,46.8-123.2,70-188.7,1.6-4.5,3.1-8.8,4.6-13.1C207.45,219.94,216.85,190.34,215.85,185.84Z"/><path class="cls-1" d="M403.55,606.34c.8-.6,1.4-1.1,2-1.6A5.89,5.89,0,0,0,403.55,606.34Z"/><path id="Path_45" data-name="Path 45" class="cls-2" d="M1159.05,507.14c-3.1,0-25.2,10.3-66.3,30.3l-5.7-8.7c-11.3-18-18.5-26.7-21.6-26.7-2.1,0-3.6,1.5-4.6,3.1,1.5,3.6,5.1,12.8,11.3,28.3s10.3,23.1,13.4,23.1,16.4-7.2,41.1-22.1,37-22.6,37-24.2S1162.65,507.14,1159.05,507.14Z"/><path id="Path_46" data-name="Path 46" class="cls-2" d="M1436.15,650.54c-22.1,13.8-44.3,27.8-68.6,37.4-7.6,3-15.5,5.7-23.7,5.6-2.8,0-6.2-.7-7.4-3.2a7.66,7.66,0,0,1-.3-4.5c1.8-12.4,10.4-23.9,16.7-34.3a313.34,313.34,0,0,1,24.2-34.4c4.6-5.1,7.2-8.2,7.2-9.8a10.24,10.24,0,0,0-14.4-3.1,11.9,11.9,0,0,0-3.1,2.6c-15.4,15.4-27.6,34.8-43.2,50.6a254.69,254.69,0,0,1-25.5,22c-7.1,5.6-17.3,14-26.9,14.2-10.8.5-16.4-4.1-16.4-12.8,0-16.4,13.9-47.8,41.6-93.5,23.1-16.4,45.7-33.9,66.3-53.4l103.3-4.6c9.3-.5,14.4-4.1,14.4-10.8,0-1.5-3.1-2.1-9.2-2.1s-23.1.5-50.9,1.5l-41.6.5c25.7-26.2,38.5-48.3,38.5-65.8,0-5.7-2.6-8.2-7.7-8.2-14.4,0-41.1,25.2-80.2,75-24.2.5-48.8.5-73.5.5-8.2.5-12.8,4.1-12.8,10.8,0,3.6,7.7,5.7,23.6,5.7s32.4,0,49.8-1a637.22,637.22,0,0,0-40.1,58.1c-31.9,27.2-104.3,98.7-125.4,99.7-5.7.5-8.2-3.1-8.2-6.7,0-5.7,5.7-17.5,17-35.5a313.34,313.34,0,0,1,24.2-34.4c4.6-5.1,7.2-8.2,7.2-9.8a15.21,15.21,0,0,0-9.8-5.1,8.35,8.35,0,0,0-7.7,4.6c-7.2,8.2-13.4,19-22.6,25.2-15.4,10.8-30.8,21.6-48.3,28.3a15.4,15.4,0,0,1-5.1,1c-3.1,0-4.1-2.6-5.1-5.1-2.3-5.6-8.1-10-12.2-14.2-4.7-4.7-9.4-9.3-14.1-14a2.4,2.4,0,0,1-.9-1.6,2,2,0,0,1,.8-1.4c12.3-13.8,25.1-27.4,34.2-43.5,1.4-2.4,2.7-5.2,1.9-7.9a7.19,7.19,0,0,0-5.6-4.6,14.79,14.79,0,0,0-7.5.8c-7,2.1-13.3,6.1-19.2,10.4-8.5,6.2-16.6,13.5-21.3,23a42.12,42.12,0,0,0-3.1,29.2,5.66,5.66,0,0,1,.2,3.4,4.77,4.77,0,0,1-1.8,2.2,185.19,185.19,0,0,1-26.3,19.6c-2.2,1.4-4.8,3.8-3.5,6s4.9,1.1,7.1-.3a196.81,196.81,0,0,0,27.7-22c8.6,7.5,17,15.3,25,23.4-21.9,5.3-44.9,11.1-61.3,26.6-3.2,3-6.1,6.4-7.6,10.4s-1.6,8.9.8,12.5c2.5,3.8,7.2,5.7,11.6,6.7,13.8,3.1,28.2,0,41.5-4.7,10.9-3.9,21.7-9,29.5-17.5s12.2-20.9,8.6-31.9c.8,2.6,29.2-12.2,31.5-13.7,4-2.6,7.9-5.4,11.8-8.2,1.7-1.2,5.9-2.9,7.1-4.6a173.13,173.13,0,0,0-10.3,15.9c-10.8,17-15.9,29.8-15.9,39.6s4.6,14.9,14.4,14.4c35.5-2.6,88.4-54,124.4-89.9l-3.1,5.7c-17,29.3-25.2,50.4-25.2,62.7l1,4.6a13.8,13.8,0,0,0,6.7,8.7c26.6,16,67-8.6,82.4-30.6-2,6.8-5.6,13.2-6.8,20.2s1,15.5,7.6,18.3c3.5,1.5,7.6,1.1,11.3.4,17.6-3.2,34-11.3,49.7-20,16.9-9.3,33.3-19.5,49.2-30.4,3-2.1,6.3-6.3,3.6-8.8A.31.31,0,0,0,1436.15,650.54Zm-38.6-188.6c1.5,0,2.1,1,2.1,2.6,0,14.4-10.3,32.4-30.8,55h-27.2c28.7-38.1,47.2-57.6,55.9-57.6Zm-81.2,94.5c5.7-9.3,10.3-15.9,13.9-21.1,4.1-.5,11.8-.5,23.6-.5a596,596,0,0,1-49.3,40.1c1.5-3,5.6-9.2,11.8-18.5ZM1060,623.24c-3.1-3.6-4.1-8.2-4.1-13.4a23.29,23.29,0,0,1,9.8-17.5,29.73,29.73,0,0,1,19-8.7c2.1,0,3.1,1,3.1,3.6s-4.6,9.3-14.4,20.6Zm7.3,81.9a10.91,10.91,0,0,0-1.1.6,53.5,53.5,0,0,1-29.6,6.3,16.81,16.81,0,0,1-8-2.2c-4.8-3-4.8-9.3-2.5-13.8,3-5.9,9.1-9.9,14.9-12.7a126.8,126.8,0,0,1,34.9-10.3c1-.1,1.7,11.4,1.8,12.4.5,4.5.7,8.1-2,12.1A22.75,22.75,0,0,1,1067.25,705.14Z"/><path id="Path_47" data-name="Path 47" class="cls-2" d="M1215.65,554.44a28.57,28.57,0,0,0-15.4,6.2,19,19,0,0,0-8.7,16.4c0,7.2,2.6,10.8,7.7,10.8,6.7,0,12.8-3.6,17-8.7a26.09,26.09,0,0,0,7.7-17,7.13,7.13,0,0,0-6.2-8.2h-.5Z"/><path id="Path_50" data-name="Path 50" class="cls-3" d="M264.75,52.74c4.6,0,9.8,1,13.4,3.6a19,19,0,0,1,6.2,11.8c1.5,12.8-5.7,26.7-13.4,36.5a69.16,69.16,0,0,1-30.3,22.6c-4.1,1.5-7.7,2.6-11.8,2.6a17.38,17.38,0,0,1-11.3-3.6c-4.1-3.1-5.7-8.2-6.7-13.4-5.1-25.7,14.9-46.8,37-56A41.64,41.64,0,0,1,264.75,52.74Z"/><path id="Path_48" data-name="Path 48" class="cls-2" d="M1429.05,550.84a5.92,5.92,0,0,0-4.1,1.5l-33.9,27.8a20.43,20.43,0,0,0-4.1,5.1,2.65,2.65,0,0,0,2.1,2.6,23.38,23.38,0,0,0,6.7-2.6l36.5-23.1a8.41,8.41,0,0,0,2.6-5.7,5.62,5.62,0,0,0-4.1-6.2h-.5C1430.15,550.84,1429.55,550.84,1429.05,550.84Z"/><path class="cls-2" d="M937.15,602.24a10.47,10.47,0,0,0-8.2,4.1l-30.8,37.5a331.42,331.42,0,0,1-40.1,35.5c-15.4,11.8-29.3,21.1-34.4,21.1-4.1,0-7.7-2.1-7.2-6.7,0-2.6,1-4.6,1.5-6.7,11.8-28.8,29.8-55,48.3-80.2,1.5-2.1,2.6-4.1,1.5-6.2-.5-.5-1-1.5-2.1-1.5-4.1-2.6-9.2-.5-13.4,2.1-6.7,4.1-12.9,9.8-18.5,15.9-17.5,19-32.9,40.1-48.8,60.1-14.9,19-32.4,43.7-55,54.5,1-4.1,1.5-8.7,2.1-12.9v-7.2c-.5-8.7-5.7-16.4-12.8-21.1a48.58,48.58,0,0,0-26.2-9.2,58,58,0,0,0-18.5,1.5,312.22,312.22,0,0,0,34.9-28.8c17-15.4,25.7-27.2,25.7-34.9s-5.1-11.3-15.9-11.3a48.28,48.28,0,0,0-12.8,2.1,24.18,24.18,0,0,0,3.1-15.9c-4.1-13.4-26.7-8.7-36.5-5.7l-4.1,1.5c-.5.5-1.6.5-2.6,1a44.39,44.39,0,0,0-7.7,3.6,102.86,102.86,0,0,0-15.9,10.3c-5.7,4.6-8.2,8.2-8.2,12.3,0,9.8,10.3,14.9,31.4,14.9a120.7,120.7,0,0,0,19-1.5c-4.1,4.1-7.7,7.7-11.8,11.3-8.7,7.2-26.7,19.5-26.7,19.5l-45.7,31.4c-14.4,6.7-16.4,9.2-21.1,9.2a11.93,11.93,0,0,1-9.2-2.6c-1.5-1.5-2.1-3.6-2.1-6.2a51,51,0,0,1,13.4-30.3,93.34,93.34,0,0,1,22.1-20.5,19.25,19.25,0,0,0,9.8-17c0-5.7-8.7-9.8-26.2-12.8,13.4-15.4,20-29.8,20.6-43.2,0-8.7-3.6-13.4-10.8-13.4-10.8,0-22.6,5.7-34.9,17.5-12.3,11.3-18.5,22.1-18.5,31.3s8.2,16.5,24.7,21.6c-16.4,17.5-68.3,53.4-83.8,60.1-15.4,7.2-27.2,15.4-32.9,15.4s-9.2-1.5-9.2-5.7a123.57,123.57,0,0,1,17.5-28.3c4.6-6.7,9.2-13.4,13.9-19.5,4.6-6.7,10.3-13.9,17-23.1,7.2-9.8,12.3-17,16.4-23.1,0-1.5-3.6-3.1-10.8-4.6a8.07,8.07,0,0,0-7.2,4.1,473.71,473.71,0,0,1-56.5,58.6c-26.2,23.6-50.9,41.6-61.2,41.6-3.6,0-5.6-2.6-5.6-7.7s19.5-32.9,48.8-71.9l2.1-2.6,2.6-3.6a16.47,16.47,0,0,0,3.1-6.7c0-1-4.1-3.1-12.8-5.7a4.1,4.1,0,0,0-1.1.1,7.73,7.73,0,0,0-2.7.8c-.6.5-1.3,1-2,1.6-13.6,10.9-54,43.3-54.7,44.3-25.5,19.2-57,42-71.9,42q-30.6,0-30.6-53.6c0-12.8,2.5-24.3,7.7-34.5q53.55,0,89.5-31.6c23.9-21.1,35.9-42.1,35.9-63.2,0-19.2-10.7-28.7-32-28.7q-55.65,0-130.9,105.4l19.5-47.9,14.6-37.4c1.9-4.5,3.7-9,5.6-13.5,21.8-52.1,46.2-103.3,70.2-154.7,56.9-3.2,107.2-53.8,110-110.8.7-15.2-3.6-33.2-17.8-38.6-17.9-6.7-34.8,11.6-44.9,27.8a1074.69,1074.69,0,0,0-58,106.5c-46-16.9-84.5-31.5-121.6-59.1-2.8-2.1-5.6-4.2-8.4-6.5-3.8-3-7.5-6.2-11.2-9.5-1.8-1.6-3.6-3.2-5.4-5-1.4,4.3-3.1,9.9-4.6,14.6,5.3,4.6,10.7,8.9,16.2,13,1.4,1.1,2.9,2.1,4.3,3.1s3.1,2.2,4.6,3.2c40.2,28,75,41.8,120.6,57.2-35.5,68.5-70.6,143.7-104.7,226.6l-62,149.4a39.17,39.17,0,0,0-2.8,13.4c0,8.9,4.6,13.4,13.9,13.4,4.2,0,7.4-2.9,9.8-8.6q11.85-32.55,35.5-93.9Q277.8,504.34,328,504.34c14.8,0,22.3,7.2,22.3,21.5s-8.9,28.2-26.8,41.7-42.8,20.1-74.8,20.1c-9.3,0-16,7.2-20.2,21.5a168.81,168.81,0,0,0-6.3,47.4q0,63.15,34.8,63.2c23.4,0,69-32,122-78.5-9,12.8-18.3,25.5-28.2,37.6l-5.3,8.2c-3.5,4.8-5.1,14.8-5.1,20.9,0,7.7,4.6,11.3,13.9,11.3,16.4,0,52.4-26.2,96.1-65.8-4.1,5.7-7.2,9.8-9.2,11.8-2.1,2.6-6.2,8.7-11.8,18a54.44,54.44,0,0,0-9.8,21.1,12.69,12.69,0,0,0,10.8,14.4H434c19.5,0,120.2-69.4,140.3-91,6.2,1,11.8,2.1,18,2.6,4.6,0,6.7,1,6.7,2.6s-2.6,4.6-7.7,9.8-11.3,10.3-17.5,15.4c-6.7,6.2-12.9,12.8-17.5,21.1a48,48,0,0,0-8.7,25.2,13.07,13.07,0,0,0,10.8,14.4H562c19.5,0,93.5-57,93.5-57,10.8-8.2,21.6-16.5,31.3-25.2,2.1-2.1,4.6-5.7,7.7-7.2,2.6-1.5,5.7-1.5,8.2-2a57.12,57.12,0,0,0,18.5-7.7c1.5,13.9-17.5,28.8-26.2,36.5-7.7,7.2-14.9,12.8-21.6,18.5-6.7,5.1-13.9,10.8-21.6,15.9s-12.3,8.7-14.9,10.8-4.1,3.6-4.1,5.6c0,1.5,1,2.6,3.6,2.6a15.32,15.32,0,0,0,9.2-4.6,64.4,64.4,0,0,1,40.6-12.8,31.94,31.94,0,0,1,19.5,6.2c5.6,3.6,9.2,9.8,9.2,15.9v4.6a120.62,120.62,0,0,1-4.6,19.5q-58.65,22.35-111,84.8c-34.9,41.6-52.4,73.5-52.4,96.1,0,12.9,6.7,19,18.5,19,20.1,0,49.3-22.6,86.8-67.3s63.2-86.3,76.1-124.4c15.4-5.6,28.8-15.4,39.6-27.8,25.2-29.7,45.7-63.2,71.5-92.7-5.6,7.1-9.7,16.8-14.5,23.8-5.7,8.2-11.3,16.4-16.4,25.2s-14.9,21.1-14.9,32.4c0,7.7,4.1,11.3,12.9,11.3,8.2,0,21.1-5.1,37-15.9a485.29,485.29,0,0,0,50.9-40.1l-32.9,56.5-20,34.9c-38.6,10.8-74.5,36-107.9,75s-49.9,69.4-49.9,91.5c0,13.4,6.2,19,18.5,19,13.4,0,24.1-9.2,33.9-17.2,10.3-8.5,20.2-17.9,28.3-28.5a1270.93,1270.93,0,0,0,86.3-129,142.77,142.77,0,0,1,20.6-1.5c7.2,0,10.8,2.1,10.8,6.7a12.65,12.65,0,0,1-6.2,10.8c-4.1,3.1-6.2,5.7-6.2,6.7,0,2.6,2.1,3.6,5.6,3.6s8.7-3.6,15.4-10.3a31.84,31.84,0,0,0,9.8-18c0-9.2-8.7-13.9-26.2-13.9a138.58,138.58,0,0,0-14.4.5l19-30.8c22.1-36,34.9-56,38.5-61.7,4.6-6.7,10.8-16.4,19-28.8,8.2-12.8,12.3-19,12.3-19.5C947.45,604.74,943.85,603.24,937.15,602.24ZM414,204c2.3,0,4.5,2.2,4.5,8.6,0,16.3,0,26-19.7,63.4-13.3,25.1-38.4,44.6-66.8,43.8h-.9C367.85,245.34,398.15,204,414,204Zm141.9,390.4a29.49,29.49,0,0,1,10.8-18.5,34.57,34.57,0,0,1,19-9.8c5.7,0,8.2,4.1,8.2,13.4,0,8.7-4.6,19-14.4,30.3C564.05,606.84,555.85,601.64,555.85,594.44Zm142.8,16A116.64,116.64,0,0,1,672,614c-8.2,0-13.9-1.5-13.9-5.1a14.45,14.45,0,0,1,9.2-10.3l3.6-1h.5l4.1-1c5.6-1,21.6-5.6,25.7-1.5.5.5.5,1.5.5,2.6A27.44,27.44,0,0,1,698.65,610.44Zm-60.1,251.8q-44.7,58.5-66.3,58.6c-5.6,0-8.7-4.6-8.7-13.9s6.2-24.2,18-44.7a326.93,326.93,0,0,1,51.4-63.7,202,202,0,0,1,70.4-46.8A470.41,470.41,0,0,1,638.55,862.24Zm70.9,59.6c-5.6,0-8.7-3.6-8.7-11.3a79.34,79.34,0,0,1,9.2-30.8,254.35,254.35,0,0,1,25.2-41.1,200.06,200.06,0,0,1,41.6-41.6,165.53,165.53,0,0,1,52.9-28.8C768.05,870.44,728,921.84,709.45,921.84ZM157,245.94c1.6-5.1,3.3-10.1,4.9-14.9-19.8-20-41.1-47.2-51.1-69.8-12.1-27.4-15.4-59.6-4.3-87.4s38-50,67.9-50.9c-5.3,1.9-10.6,4.5-13.6,9.2s-2.7,11.9,2,14.9c3.5,2.3,8.4,1.6,12-.7s6.2-5.7,8.6-9.1c4.9-6.7,9.9-13.5,14.8-20.2,2.5-3.4,5.1-7.6,3.7-11.6-2-5.6-9.8-5.9-15.6-4.6a118.86,118.86,0,0,0-91.4,140.6C103.55,182.64,127.35,218.14,157,245.94Z"/><path class="cls-3" d="M168.75,237.84c-1.4,4.3-3.1,9.9-4.6,14.6-2.4-2.1-4.8-4.3-7.2-6.5,1.6-5.1,3.3-10.1,4.9-14.9C164.15,233.44,166.55,235.64,168.75,237.84Z"/></g></g></g></g></svg>