<svg xmlns="http://www.w3.org/2000/svg" viewBox="0 0 29.25 20.25"><defs><style>.cls-1{opacity:0.65;}</style></defs><g id="Vrstva_2" data-name="Vrstva 2"><g id="Vrstva_1-2" data-name="Vrstva 1"><g id="Icon_ionic-ios-mail" data-name="Icon ionic-ios-mail" class="cls-1"><path id="Path_320" data-name="Path 320" d="M29,2.48l-7.56,7.71a.13.13,0,0,0,0,.19h0L26.74,16a.89.89,0,0,1,0,1.28h0a.91.91,0,0,1-1.29,0L20.17,11.7a.15.15,0,0,0-.2,0L18.69,13a5.69,5.69,0,0,1-4,1.7A5.81,5.81,0,0,1,10.53,13L9.29,11.7a.15.15,0,0,0-.2,0L3.81,17.32a.92.92,0,0,1-1.29,0,.91.91,0,0,1,0-1.29h0l5.29-5.63a.15.15,0,0,0,0-.2L.24,2.48a.15.15,0,0,0-.2,0,.13.13,0,0,0,0,.1V18a2.25,2.25,0,0,0,2.25,2.25H27A2.25,2.25,0,0,0,29.25,18V2.58a.14.14,0,0,0-.14-.14A.18.18,0,0,0,29,2.48Z"/><path id="Path_321" data-name="Path 321" d="M14.63,12.87a3.81,3.81,0,0,0,2.74-1.14L28.41.49A2.23,2.23,0,0,0,27,0H2.24A2.2,2.2,0,0,0,.85.49l11,11.24A3.82,3.82,0,0,0,14.63,12.87Z"/></g></g></g></svg>