<svg xmlns="http://www.w3.org/2000/svg" xmlns:xlink="http://www.w3.org/1999/xlink" viewBox="0 0 135 135"><defs><style>.cls-1{fill:none;}.cls-2{clip-path:url(#clip-path);}.cls-3{fill:#ffde17;}.cls-4{opacity:0.5;}.cls-5{clip-path:url(#clip-path-3);}.cls-6{clip-path:url(#clip-path-4);}.cls-7{fill:url(#Nepojmenovaný_přechod_8);}.cls-8{fill:#fff;}</style><clipPath id="clip-path" transform="translate(0.06 0)"><rect class="cls-1" width="135" height="135"/></clipPath><clipPath id="clip-path-3" transform="translate(0.06 0)"><rect class="cls-1" x="50.16" y="14.85" width="84.24" height="120.08"/></clipPath><clipPath id="clip-path-4" transform="translate(0.06 0)"><path class="cls-1" d="M134.4,76.07v0A67.54,67.54,0,0,1,80,133.83l-15.66,1.1h0L50.16,120.15l11-34.6-4-22.41-5.59-5.52L71,14.85,81.72,26h3l49.64,49.74Z"/></clipPath><linearGradient id="Nepojmenovaný_přechod_8" x1="-4892.16" y1="257.87" x2="-4892.14" y2="257.87" gradientTransform="matrix(84.24, 0, 0, -120.08, 412110.67, 31040.61)" gradientUnits="userSpaceOnUse"><stop offset="0" stop-color="#a0a0a0"/><stop offset="1" stop-color="#dcdcdc"/></linearGradient></defs><g id="Vrstva_2" data-name="Vrstva 2"><g id="Vrstva_1-2" data-name="Vrstva 1"><g id="Group_186" data-name="Group 186"><g class="cls-2"><g id="Group_185" data-name="Group 185"><g id="Group_184" data-name="Group 184"><g class="cls-2"><g id="Group_183" data-name="Group 183"><path id="Path_153" data-name="Path 153" class="cls-3" d="M134.94,67.5a68.12,68.12,0,0,1-.54,8.57v0a67.47,67.47,0,0,1-67,58.9c-1,0-2.07,0-3.08-.07h0a67.5,67.5,0,1,1,70.6-67.43" transform="translate(0.06 0)"/><g id="Group_182" data-name="Group 182" class="cls-4"><g id="Group_181" data-name="Group 181"><g class="cls-5"><g id="Group_180" data-name="Group 180"><g id="Group_179" data-name="Group 179"><g class="cls-6"><g id="Group_178" data-name="Group 178"><rect id="Rectangle_121" data-name="Rectangle 121" class="cls-7" x="50.22" y="14.85" width="84.24" height="120.08"/></g></g></g></g></g></g></g><path id="Path_155" data-name="Path 155" class="cls-8" d="M84.73,26C80.82,26,71,24.68,71,14.86H50.9s10.87,24.78-.74,37.62l1.35,5.13H70.69L52.87,64.87,59.06,84.5l-8.9,35.65H84.74Z" transform="translate(0.06 0)"/></g></g></g></g></g></g></g></g></svg>