<svg xmlns="http://www.w3.org/2000/svg" xmlns:xlink="http://www.w3.org/1999/xlink" viewBox="0 0 135.01 135.01"><defs><style>.cls-1{fill:none;}.cls-2{clip-path:url(#clip-path);}.cls-3{fill:#ffde17;}.cls-4{opacity:0.6;}.cls-5{clip-path:url(#clip-path-3);}.cls-6{clip-path:url(#clip-path-4);}.cls-7{fill:url(#Nepojmenovaný_přechod_8);}.cls-8{fill:#ff6432;}.cls-9{fill:#ff8232;}.cls-10{fill:#fff;}.cls-11{fill:#fdc00f;}.cls-12{fill:#ffd21e;}</style><clipPath id="clip-path" transform="translate(0.01 0.01)"><rect class="cls-1" width="135" height="135"/></clipPath><clipPath id="clip-path-3" transform="translate(0.01 0.01)"><rect class="cls-1" x="40.62" y="25.62" width="94.37" height="109.38"/></clipPath><clipPath id="clip-path-4" transform="translate(0.01 0.01)"><path class="cls-1" d="M135,65.87l0,.08-2.7,20.59A67.51,67.51,0,0,1,67.5,135c-2.3,0-4.61-.12-6.9-.35l-.46,0h0L40.62,114.75l25.94-79.3,27.3-9.83L135,65.85Z"/></clipPath><linearGradient id="Nepojmenovaný_přechod_8" x1="-5471.88" y1="488.59" x2="-5471.87" y2="488.59" gradientTransform="matrix(94.36, 0, 0, -109.38, 516354.2, 53520.44)" gradientUnits="userSpaceOnUse"><stop offset="0" stop-color="#a0a0a0"/><stop offset="1" stop-color="#dcdcdc"/></linearGradient></defs><g id="Vrstva_2" data-name="Vrstva 2"><g id="Vrstva_1-2" data-name="Vrstva 1"><g id="Group_195" data-name="Group 195"><g class="cls-2"><g id="Group_194" data-name="Group 194"><g id="Group_193" data-name="Group 193"><g class="cls-2"><g id="Group_192" data-name="Group 192"><path id="Path_156" data-name="Path 156" class="cls-3" d="M135,67.5A67.45,67.45,0,0,1,67.6,135h-.1c-2.3,0-4.61-.12-6.9-.35l-.47-.05A67.5,67.5,0,1,1,135,65.85a.17.17,0,0,1,0,.1c0,.51,0,1,0,1.55" transform="translate(0.01 0.01)"/><g id="Group_191" data-name="Group 191" class="cls-4"><g id="Group_190" data-name="Group 190"><g class="cls-5"><g id="Group_189" data-name="Group 189"><g id="Group_188" data-name="Group 188"><g class="cls-6"><g id="Group_187" data-name="Group 187"><rect id="Rectangle_125" data-name="Rectangle 125" class="cls-7" x="40.64" y="25.63" width="94.36" height="109.38"/></g></g></g></g></g></g></g><path id="Path_158" data-name="Path 158" class="cls-8" d="M84.28,55.72v.48a41.26,41.26,0,0,0,1,8C87.16,72.33,90.8,81,91.84,91.22c1.56,15.29,2.55,23.53,2.55,23.53H40.62s1-8.24,2.55-23.53c1-10.22,4.68-18.89,6.51-27a41.25,41.25,0,0,0,1-8v-.47c0-13.18-12.3-18.28-12.3-18.28V30.25c0-5,7.1-6.72,13.19-10,0,0,3.85,10.62,15.89,10.62S83.39,20.26,83.39,20.26c6.09,3.27,13.2,5,13.2,10v7.19s-12.31,5.1-12.31,18.28" transform="translate(0.01 0.01)"/><path id="Path_159" data-name="Path 159" class="cls-9" d="M67.5,114.76H94.39s-1-8.25-2.55-23.55c-1.41-13.8-7.56-24.77-7.56-35.49,0-13.18,12.3-18.27,12.3-18.27v-7.2c0-5-7.1-6.71-13.19-10,0,0-3.85,10.62-15.89,10.62Z" transform="translate(0.01 0.01)"/><path id="Path_160" data-name="Path 160" class="cls-10" d="M67.5,36.42c-10.71,0-19.38-6.4-19.73-14.58l1.34-.06c.31,7.46,8.4,13.3,18.4,13.3s18.08-5.84,18.4-13.3l1.33.06c-.35,8.18-9,14.58-19.73,14.58" transform="translate(0.01 0.01)"/><path id="Path_161" data-name="Path 161" class="cls-11" d="M85.32,64.17H49.67c.17-.71.3-1.42.42-2.13a31.06,31.06,0,0,0,.5-3.72c.07-.71.11-1.41.13-2.12H84.27c0,.71,0,1.41.12,2.12.11,1.24.27,2.47.5,3.72.13.71.28,1.42.42,2.13" transform="translate(0.01 0.01)"/><path id="Path_162" data-name="Path 162" class="cls-12" d="M84.9,62H50.1a35.74,35.74,0,0,0,.5-3.72H84.4A36.85,36.85,0,0,0,84.9,62" transform="translate(0.01 0.01)"/></g></g></g></g></g></g></g></g></svg>