<svg xmlns="http://www.w3.org/2000/svg" xmlns:xlink="http://www.w3.org/1999/xlink" viewBox="0 0 100.86 103.06"><defs><style>.cls-1{fill:none;}.cls-2{opacity:0.53;}.cls-3{opacity:0.5;}.cls-4{clip-path:url(#clip-path);}.cls-5{fill:#f37138;}.cls-6{fill:#ff6432;}.cls-7{fill:#dcdcdc;}.cls-8{fill:#ff7332;}.cls-9{fill:#ff9614;}.cls-10{fill:#fff;}</style><clipPath id="clip-path" transform="translate(-4.41 -5.23)"><rect class="cls-1" x="10.02" y="27.97" width="109.87" height="79.86" transform="translate(-28.37 78.91) rotate(-53)"/></clipPath></defs><g id="Vrstva_2" data-name="Vrstva 2"><g id="Vrstva_1-2" data-name="Vrstva 1"><g id="Vrstva_2-2" data-name="Vrstva 2" class="cls-2"><g id="Vrstva_1-2-2" data-name="Vrstva 1-2"><g id="Group_250" data-name="Group 250" class="cls-3"><g class="cls-4"><g id="Group_249" data-name="Group 249"><path id="Path_200" data-name="Path 200" class="cls-5" d="M89.32,101.7l-1.74-1.53c-4.91-4.25-10-8.66-10.15-16a19.32,19.32,0,0,1,1.14-7,63.63,63.63,0,0,1-18.92-5A42.34,42.34,0,0,1,42.78,59.13L44,58.21A40.8,40.8,0,0,0,60.28,70.88a62.43,62.43,0,0,0,18.88,4.91,26,26,0,0,1,4.72-7c2.33-2.52,5.68-4.21,8.65-5.54,3.22-1.43,7.88-3.06,10.94-.54a4.47,4.47,0,0,1,1.8,3.78C105.16,69,103,71.62,100.9,73c-5.53,3.76-13.05,4.89-20.73,4.36A17.82,17.82,0,0,0,79,84.18c.15,6.62,4.75,10.61,9.61,14.83l1.76,1.54Zm13.06-37.91C100,62,96,63.38,93.16,64.63s-6,2.86-8.15,5.17a24.73,24.73,0,0,0-4.21,6.11c7.17.44,14.12-.67,19.23-4.14,1.78-1.21,3.62-3.45,3.7-5.38a2.89,2.89,0,0,0-1.23-2.51l-.12-.09" transform="translate(-4.41 -5.23)"/><rect id="Rectangle_154" data-name="Rectangle 154" class="cls-6" x="2.54" y="35.34" width="95.23" height="42.8" transform="translate(-29.76 57.43) rotate(-53)"/><rect id="Rectangle_155" data-name="Rectangle 155" class="cls-7" x="77.35" y="3.08" width="7.32" height="25.44" transform="translate(15.22 65.76) rotate(-53)"/><rect id="Rectangle_156" data-name="Rectangle 156" class="cls-8" x="11.09" y="52.49" width="95.23" height="21.4" transform="translate(-31.5 66.81) rotate(-53)"/><path id="Path_201" data-name="Path 201" class="cls-9" d="M68.47,10.94,60.35,7.65l.95-1.26,2.43,1Z" transform="translate(-4.41 -5.23)"/><path id="Path_202" data-name="Path 202" class="cls-9" d="M87.82,25.51,56.44,12.84l1-1.28L83.06,21.93Z" transform="translate(-4.41 -5.23)"/><path id="Path_203" data-name="Path 203" class="cls-9" d="M94.59,33.34l-1,1.27L52.53,18l1-1.28Z" transform="translate(-4.41 -5.23)"/><path id="Path_204" data-name="Path 204" class="cls-9" d="M90.68,38.52l-1,1.28-41-16.61,1-1.27Z" transform="translate(-4.41 -5.23)"/><path id="Path_205" data-name="Path 205" class="cls-9" d="M86.79,43.68l-1,1.28L44.74,28.37l1-1.28Z" transform="translate(-4.41 -5.23)"/><path id="Path_206" data-name="Path 206" class="cls-9" d="M82.89,48.87l-1,1.27-41-16.59,1-1.28Z" transform="translate(-4.41 -5.23)"/><path id="Path_207" data-name="Path 207" class="cls-9" d="M79,54.05l-1,1.28L36.93,38.74l1-1.28Z" transform="translate(-4.41 -5.23)"/><path id="Path_208" data-name="Path 208" class="cls-9" d="M75.07,59.23l-1,1.28L33,43.92l1-1.28Z" transform="translate(-4.41 -5.23)"/><path id="Path_209" data-name="Path 209" class="cls-9" d="M71.18,64.41l-1,1.27L29.13,49.09l1-1.28Z" transform="translate(-4.41 -5.23)"/><path id="Path_210" data-name="Path 210" class="cls-9" d="M67.28,69.58l-1,1.28-41-16.59,1-1.28Z" transform="translate(-4.41 -5.23)"/><path id="Path_211" data-name="Path 211" class="cls-9" d="M63.37,74.76l-1,1.28-41-16.59,1-1.28Z" transform="translate(-4.41 -5.23)"/><path id="Path_212" data-name="Path 212" class="cls-9" d="M59.47,80l-1,1.28-41-16.65,1-1.27Z" transform="translate(-4.41 -5.23)"/><path id="Path_213" data-name="Path 213" class="cls-9" d="M55.56,85.13l-1,1.28L13.51,69.82l1-1.28Z" transform="translate(-4.41 -5.23)"/><path id="Path_214" data-name="Path 214" class="cls-9" d="M51.66,90.31l-1,1.27L9.61,75l1-1.28Z" transform="translate(-4.41 -5.23)"/><path id="Path_215" data-name="Path 215" class="cls-9" d="M47.77,95.48l-1,1.28L5.71,80.16l1-1.27Z" transform="translate(-4.41 -5.23)"/><path id="Path_216" data-name="Path 216" class="cls-9" d="M43.86,100.66l-1,1.28L17.24,91.57,12.48,88Z" transform="translate(-4.41 -5.23)"/><path id="Path_217" data-name="Path 217" class="cls-9" d="M40,105.85l-1,1.26-2.43-1-4.74-3.57Z" transform="translate(-4.41 -5.23)"/><rect id="Rectangle_157" data-name="Rectangle 157" class="cls-10" x="82.43" y="13.27" width="7.32" height="12.72" transform="translate(14.19 71.35) rotate(-53)"/><rect id="Rectangle_158" data-name="Rectangle 158" class="cls-7" x="15.63" y="84.99" width="7.32" height="25.44" transform="translate(-74.76 49.08) rotate(-53)"/><rect id="Rectangle_159" data-name="Rectangle 159" class="cls-10" x="20.71" y="95.18" width="7.32" height="12.72" transform="translate(-75.8 54.67) rotate(-53)"/></g></g></g></g></g></g></g></svg>