<svg xmlns="http://www.w3.org/2000/svg" xmlns:xlink="http://www.w3.org/1999/xlink" viewBox="0 0 132 62.48"><defs><style>.cls-1{fill:none;}.cls-2{opacity:0.36;}.cls-3{clip-path:url(#clip-path);}.cls-4{fill:#5dc1d4;}.cls-5{fill:#3296a0;}.cls-6{fill:#f7c83e;}</style><clipPath id="clip-path" transform="translate(-2.38 -15.3)"><rect class="cls-1" x="36.79" y="-24.42" width="62.53" height="128.66" transform="translate(19.06 101.75) rotate(-82)"/></clipPath></defs><g id="Vrstva_2" data-name="Vrstva 2"><g id="Vrstva_1-2" data-name="Vrstva 1"><g id="Vrstva_2-2" data-name="Vrstva 2" class="cls-2"><g id="Vrstva_1-2-2" data-name="Vrstva 1-2"><g id="Group_255" data-name="Group 255"><g class="cls-3"><g id="Group_254" data-name="Group 254"><path id="Path_257" data-name="Path 257" class="cls-4" d="M111.84,16.11c-29,6.82-12.53,24-12.53,24L2.38,45S25.87,56.69,45.51,55.49c20.53-1.25,34-6.46,46.2-9.87,8-2.24,25.92-3.27,35.89-7.23,14.72-5.85,3.67-26.86-15.76-22.28m16.08,11.18c.74,4.53-5.07,9.24-13,10.53S100,36.47,99.28,31.94s5.07-9.25,13-10.53,14.91,1.35,15.64,5.88" transform="translate(-2.38 -15.3)"/><path id="Path_258" data-name="Path 258" class="cls-5" d="M6.31,17,98.14,48.39s-20.57,11.92,5.44,26.48c17.42,9.75,33.83-7.39,21.29-17.08C116.38,51.24,99.46,45.31,92.37,41,81.6,34.38,70.07,25.64,50.68,18.78,32.13,12.17,6.31,17,6.31,17M112.56,54.86c7.24,3.42,11.52,9.55,9.56,13.7s-9.41,4.75-16.65,1.34S94,60.36,95.9,56.2s9.42-4.75,16.66-1.34" transform="translate(-2.38 -15.3)"/><path id="Path_259" data-name="Path 259" class="cls-6" d="M90.52,41.57a1.54,1.54,0,1,1-1.74,1.32h0a1.56,1.56,0,0,1,1.74-1.32h0" transform="translate(-2.38 -15.3)"/></g></g></g></g></g></g></g></svg>