<svg xmlns="http://www.w3.org/2000/svg" viewBox="0 0 27.03 27.03"><defs><style>.cls-1{fill:#f2f2f2;isolation:isolate;opacity:0.65;}</style></defs><g id="Vrstva_2" data-name="Vrstva 2"><g id="Vrstva_1-2" data-name="Vrstva 1"><g id="Vrstva_2-2" data-name="Vrstva 2"><g id="Vrstva_1-2-2" data-name="Vrstva 1-2"><path id="Icon_awesome-phone-alt" data-name="Icon awesome-phone-alt" class="cls-1" d="M26.23,19.11l-5.91-2.53a1.27,1.27,0,0,0-1.47.36l-2.62,3.2A19.57,19.57,0,0,1,6.89,10.8l3.2-2.62a1.27,1.27,0,0,0,.36-1.47L7.92.8A1.27,1.27,0,0,0,6.47,0L1,1.33A1.25,1.25,0,0,0,0,2.56,24.47,24.47,0,0,0,24.46,27h0a1.26,1.26,0,0,0,1.23-1L27,20.57a1.3,1.3,0,0,0-.74-1.46Z"/></g></g></g></g></svg>