<svg xmlns="http://www.w3.org/2000/svg" viewBox="0 0 27.02 27"><defs><style>.cls-1{fill:#f2f2f2;isolation:isolate;opacity:0.65;}</style></defs><g id="Vrstva_2" data-name="Vrstva 2"><g id="Vrstva_1-2" data-name="Vrstva 1"><g id="Vrstva_2-2" data-name="Vrstva 2"><g id="Vrstva_1-2-2" data-name="Vrstva 1-2"><path id="Icon_ionic-ios-person" data-name="Icon ionic-ios-person" class="cls-1" d="M27,26.32c-.51-2.24-3.4-3.33-4.4-3.68a35.24,35.24,0,0,0-3.66-.7,3.6,3.6,0,0,1-1.69-.78c-.28-.34-.12-3.46-.12-3.46a11.13,11.13,0,0,0,.8-1.53,20.57,20.57,0,0,0,.6-2.67s.57,0,.78-1a11.18,11.18,0,0,0,.52-2.36c-.05-.81-.49-.78-.49-.78a12.57,12.57,0,0,0,.48-3.61C19.89,2.85,17.63,0,13.53,0S7.16,2.85,7.22,5.74a13,13,0,0,0,.47,3.61s-.44,0-.48.78a9.58,9.58,0,0,0,.52,2.36c.2,1,.78,1,.78,1a17.43,17.43,0,0,0,.59,2.67,8.82,8.82,0,0,0,.8,1.52s.17,3.13-.11,3.47a3.78,3.78,0,0,1-1.7.78,31.94,31.94,0,0,0-3.66.7C3.43,23,.54,24.08,0,26.32A.55.55,0,0,0,.43,27h26a.57.57,0,0,0,.56-.56Z"/></g></g></g></g></svg>