<svg xmlns="http://www.w3.org/2000/svg" xmlns:xlink="http://www.w3.org/1999/xlink" viewBox="0 0 47.05 56.73"><defs><style>.cls-1{fill:none;}.cls-2{opacity:0.5;}.cls-3{clip-path:url(#clip-path);}.cls-4{fill:#ffdc28;}.cls-5{fill:#f3c333;}.cls-6{fill:#ffd21e;}.cls-7{fill:#b69031;}</style><clipPath id="clip-path" transform="translate(-11.48 -6.64)"><rect class="cls-1" x="8.09" y="6.15" width="42.84" height="51.5" transform="translate(-9.8 13.38) rotate(-22)"/></clipPath></defs><g id="Vrstva_2" data-name="Vrstva 2"><g id="Vrstva_1-2" data-name="Vrstva 1"><g id="Vrstva_2-2" data-name="Vrstva 2" class="cls-2"><g id="Vrstva_1-2-2" data-name="Vrstva 1-2"><g id="Group_252" data-name="Group 252" class="cls-2"><g class="cls-3"><g id="Group_251" data-name="Group 251"><path id="Rectangle_161" data-name="Rectangle 161" class="cls-4" d="M19.5,60.56l37.11-15a1.4,1.4,0,0,1,1.82.78h0v.1a1.42,1.42,0,0,1-.78,1.83h0l-37.11,15a1.41,1.41,0,0,1-1.83-.77v-.1a1.4,1.4,0,0,1,.77-1.84Z" transform="translate(-11.48 -6.64)"/><path id="Path_218" data-name="Path 218" class="cls-5" d="M55.37,46.06l-34.64,14L11.48,14.69v-.07A19.85,19.85,0,0,1,19.86,8,19.92,19.92,0,0,1,30.48,6.94V7Z" transform="translate(-11.48 -6.64)"/><path id="Path_219" data-name="Path 219" class="cls-6" d="M55.37,46.06,30.52,7V6.94A19.88,19.88,0,0,0,19.86,8l18.2,45Z" transform="translate(-11.48 -6.64)"/><path id="Path_220" data-name="Path 220" class="cls-6" d="M30.52,7l-19,7.69v-.07A20,20,0,0,1,19.86,8,19.92,19.92,0,0,1,30.48,6.94Z" transform="translate(-11.48 -6.64)"/><rect id="Rectangle_162" data-name="Rectangle 162" class="cls-4" x="15.24" y="32.4" width="29.62" height="0.94" transform="translate(-21.6 7.01) rotate(-22)"/><path id="Path_221" data-name="Path 221" class="cls-7" d="M22.7,12.87a.83.83,0,0,1-.46,1.07.82.82,0,0,1-.61-1.52h0a.81.81,0,0,1,1.06.45h0" transform="translate(-11.48 -6.64)"/><path id="Path_222" data-name="Path 222" class="cls-7" d="M19.38,14.21a.82.82,0,1,1-1.08-.45h0a.8.8,0,0,1,1.05.44h0" transform="translate(-11.48 -6.64)"/><path id="Path_223" data-name="Path 223" class="cls-7" d="M16.07,15.55a.83.83,0,0,1-.46,1.07.82.82,0,1,1-.69-1.49l.08,0h0a.8.8,0,0,1,1.05.44h0" transform="translate(-11.48 -6.64)"/><path id="Path_224" data-name="Path 224" class="cls-7" d="M24.1,16.34a.82.82,0,1,1-1.53.59.81.81,0,0,1,.43-1h0a.82.82,0,0,1,1.06.45" transform="translate(-11.48 -6.64)"/><path id="Path_225" data-name="Path 225" class="cls-7" d="M20.36,17.86a.83.83,0,0,1-.46,1.07.82.82,0,0,1-.61-1.52h0a.83.83,0,0,1,1.06.46" transform="translate(-11.48 -6.64)"/><path id="Path_226" data-name="Path 226" class="cls-7" d="M16.63,19.37a.83.83,0,0,1-.47,1.06.82.82,0,0,1-.6-1.52h0a.83.83,0,0,1,1.07.46" transform="translate(-11.48 -6.64)"/><path id="Path_227" data-name="Path 227" class="cls-7" d="M23.76,20.52a.85.85,0,1,1-1.12-.46h0a.84.84,0,0,1,1.1.46h0" transform="translate(-11.48 -6.64)"/><path id="Path_228" data-name="Path 228" class="cls-7" d="M20.35,21.9A.85.85,0,0,1,20,23a.84.84,0,0,1-1.14-.36.47.47,0,0,1-.06-.15.84.84,0,0,1,1.55-.65v0h0" transform="translate(-11.48 -6.64)"/><path id="Path_229" data-name="Path 229" class="cls-7" d="M16.93,23.28a.84.84,0,0,1-.47,1.09.85.85,0,0,1-1.1-.47.84.84,0,0,1,.47-1.09h0a.84.84,0,0,1,1.09.47h0" transform="translate(-11.48 -6.64)"/><path id="Path_230" data-name="Path 230" class="cls-7" d="M25.16,24a.84.84,0,1,1-1.57.61.83.83,0,0,1,.47-1.08.85.85,0,0,1,1.1.47h0" transform="translate(-11.48 -6.64)"/><path id="Path_231" data-name="Path 231" class="cls-7" d="M21.31,25.55a.84.84,0,0,1-.46,1.09.84.84,0,1,1-.64-1.55h0a.83.83,0,0,1,1.09.46" transform="translate(-11.48 -6.64)"/><path id="Path_232" data-name="Path 232" class="cls-7" d="M17.47,27.11A.84.84,0,0,1,17,28.2a.83.83,0,0,1-1.09-.46.84.84,0,0,1,.45-1.1h0a.85.85,0,0,1,1.1.47" transform="translate(-11.48 -6.64)"/><path id="Path_233" data-name="Path 233" class="cls-7" d="M28.35,26.74a.87.87,0,0,1-.48,1.12.85.85,0,0,1-1.12-.47h0a.84.84,0,0,1,.45-1.11h0a.86.86,0,0,1,1.12.48" transform="translate(-11.48 -6.64)"/><path id="Path_234" data-name="Path 234" class="cls-7" d="M24.85,28.16a.87.87,0,1,1-1.14-.48h0a.87.87,0,0,1,1.13.48" transform="translate(-11.48 -6.64)"/><path id="Path_235" data-name="Path 235" class="cls-7" d="M21.34,29.58a.86.86,0,1,1-1.12-.48.84.84,0,0,1,1.11.47h0" transform="translate(-11.48 -6.64)"/><path id="Path_236" data-name="Path 236" class="cls-7" d="M29.33,10.19a.82.82,0,1,1-1.08-.45h0a.8.8,0,0,1,1.05.44h0" transform="translate(-11.48 -6.64)"/><path id="Path_237" data-name="Path 237" class="cls-7" d="M26,11.53a.83.83,0,0,1-.46,1.07.81.81,0,0,1-1.06-.45h0A.82.82,0,0,1,25,11.09H25a.8.8,0,0,1,1.05.44h0" transform="translate(-11.48 -6.64)"/><path id="Path_238" data-name="Path 238" class="cls-7" d="M31.58,13.32a.82.82,0,0,1-.45,1.07h0A.82.82,0,0,1,30.06,14v0a.81.81,0,0,1,.44-1.07h0a.81.81,0,0,1,1.06.45h0" transform="translate(-11.48 -6.64)"/><path id="Path_239" data-name="Path 239" class="cls-7" d="M27.84,14.83a.83.83,0,0,1-.46,1.07.82.82,0,0,1-.61-1.52h0a.8.8,0,0,1,1.05.44h0" transform="translate(-11.48 -6.64)"/><path id="Path_240" data-name="Path 240" class="cls-7" d="M34.12,16.34a.84.84,0,0,1-.49,1.08.84.84,0,1,1,.45-1.1v0h0" transform="translate(-11.48 -6.64)"/><path id="Path_241" data-name="Path 241" class="cls-7" d="M30.71,17.71a.84.84,0,0,1-.46,1.09h0a.85.85,0,0,1-1.1-.47.83.83,0,0,1,.47-1.09h0a.83.83,0,0,1,1.09.45h0" transform="translate(-11.48 -6.64)"/><path id="Path_242" data-name="Path 242" class="cls-7" d="M27.3,19.09a.86.86,0,0,1-.47,1.1.85.85,0,0,1-.65-1.56h0a.83.83,0,0,1,1.09.45h0" transform="translate(-11.48 -6.64)"/><path id="Path_243" data-name="Path 243" class="cls-7" d="M36.39,19.46a.84.84,0,0,1-.46,1.09h0a.86.86,0,0,1-1.17-.31.85.85,0,0,1,.31-1.16A.92.92,0,0,1,35.3,19a.84.84,0,0,1,1.09.47h0" transform="translate(-11.48 -6.64)"/><path id="Path_244" data-name="Path 244" class="cls-7" d="M32.55,21a.84.84,0,1,1-1.1-.47h0a.83.83,0,0,1,1.09.46h0" transform="translate(-11.48 -6.64)"/><path id="Path_245" data-name="Path 245" class="cls-7" d="M28.7,22.57a.84.84,0,0,1-.47,1.09.85.85,0,0,1-1.1-.47.84.84,0,0,1,.47-1.09h0a.84.84,0,0,1,1.09.47h0" transform="translate(-11.48 -6.64)"/><path id="Path_246" data-name="Path 246" class="cls-7" d="M17.84,31a.87.87,0,0,1-1.61.67.87.87,0,0,1,.47-1.14h0a.88.88,0,0,1,1.13.48" transform="translate(-11.48 -6.64)"/><path id="Path_247" data-name="Path 247" class="cls-7" d="M38.94,22.47a.87.87,0,0,1-.48,1.12.85.85,0,0,1-1.12-.47h0A.86.86,0,0,1,37.81,22h0a.85.85,0,0,1,1.12.46v0" transform="translate(-11.48 -6.64)"/><path id="Path_248" data-name="Path 248" class="cls-7" d="M35.44,23.88a.87.87,0,1,1-1.14-.48h0a.88.88,0,0,1,1.13.48" transform="translate(-11.48 -6.64)"/><path id="Path_249" data-name="Path 249" class="cls-7" d="M31.93,25.3a.87.87,0,1,1-1.14-.48h0a.87.87,0,0,1,1.13.48" transform="translate(-11.48 -6.64)"/><path id="Path_250" data-name="Path 250" class="cls-7" d="M29.76,30.22a.87.87,0,1,1-1.14-.48h0a.85.85,0,0,1,1.12.46v0h0" transform="translate(-11.48 -6.64)"/><path id="Path_251" data-name="Path 251" class="cls-7" d="M26,31.72a.86.86,0,1,1-1.12-.48h0a.84.84,0,0,1,1.11.47h0" transform="translate(-11.48 -6.64)"/><path id="Path_252" data-name="Path 252" class="cls-7" d="M22.31,33.22a.88.88,0,0,1-.41,1.16A.86.86,0,0,1,20.74,34a.42.42,0,0,1,0-.1.87.87,0,0,1,1.56-.76l0,.11" transform="translate(-11.48 -6.64)"/><path id="Path_253" data-name="Path 253" class="cls-7" d="M18.81,34.64a.89.89,0,0,1-.48,1.13.87.87,0,0,1-.66-1.62.87.87,0,0,1,1.13.48h0" transform="translate(-11.48 -6.64)"/><path id="Path_254" data-name="Path 254" class="cls-7" d="M40.78,25.76a.87.87,0,1,1-1.14-.48h0a.87.87,0,0,1,1.13.48h0" transform="translate(-11.48 -6.64)"/><path id="Path_255" data-name="Path 255" class="cls-7" d="M37.27,27.18a.86.86,0,1,1-1.13-.48.86.86,0,0,1,1.13.48h0" transform="translate(-11.48 -6.64)"/><path id="Path_256" data-name="Path 256" class="cls-7" d="M33.55,28.68a.87.87,0,1,1-1.14-.48h0a.87.87,0,0,1,1.13.48h0" transform="translate(-11.48 -6.64)"/></g></g></g></g></g></g></g></svg>