<svg xmlns="http://www.w3.org/2000/svg" xmlns:xlink="http://www.w3.org/1999/xlink" viewBox="0 0 135 135.01"><defs><style>.cls-1{fill:none;}.cls-2{clip-path:url(#clip-path);}.cls-3{fill:#ffde17;}.cls-4{opacity:0.6;}.cls-5{clip-path:url(#clip-path-3);}.cls-6{clip-path:url(#clip-path-4);}.cls-7{fill:url(#Nepojmenovaný_přechod_8);}.cls-8{fill:#3296a0;}.cls-9{fill:#5dc1d4;}.cls-10{fill:#c8c8c8;}.cls-11{fill:#fdc00f;}.cls-12{fill:#969696;}.cls-13{fill:#dcdcdc;}.cls-14{fill:#ffd21e;}.cls-15{fill:#69d2dc;}</style><clipPath id="clip-path" transform="translate(0 0.01)"><rect class="cls-1" width="135" height="135"/></clipPath><clipPath id="clip-path-3" transform="translate(0 0.01)"><rect class="cls-1" x="28.28" y="27.67" width="106.17" height="107.32"/></clipPath><clipPath id="clip-path-4" transform="translate(0 0.01)"><path class="cls-1" d="M134.45,76.19A67.52,67.52,0,0,1,67.5,135c-1.8,0-3.58-.07-5.35-.22L28.28,101.92,40.69,86.45l-.27-2.16L29.23,72.86,45.85,27.67,59.17,40.84,97,42.53l2.78,2.71,4,.46Z"/></clipPath><linearGradient id="Nepojmenovaný_přechod_8" x1="-4616.16" y1="488.53" x2="-4616.15" y2="488.53" gradientTransform="matrix(106.17, 0, 0, -107.32, 490074.93, 52512.32)" gradientUnits="userSpaceOnUse"><stop offset="0" stop-color="#a0a0a0"/><stop offset="1" stop-color="#dcdcdc"/></linearGradient></defs><g id="Vrstva_2" data-name="Vrstva 2"><g id="Vrstva_1-2" data-name="Vrstva 1"><g id="Group_216" data-name="Group 216"><g id="Group_168" data-name="Group 168"><g class="cls-2"><g id="Group_167" data-name="Group 167"><g id="Group_166" data-name="Group 166"><g class="cls-2"><g id="Group_165" data-name="Group 165"><path id="Path_135" data-name="Path 135" class="cls-3" d="M135,67.5A67.4,67.4,0,0,1,67.5,135c-1.8,0-3.58-.07-5.35-.22A67.5,67.5,0,1,1,135,67.5" transform="translate(0 0.01)"/><g id="Group_164" data-name="Group 164" class="cls-4"><g id="Group_163" data-name="Group 163"><g class="cls-5"><g id="Group_162" data-name="Group 162"><g id="Group_161" data-name="Group 161"><g class="cls-6"><g id="Group_160" data-name="Group 160"><rect id="Rectangle_105" data-name="Rectangle 105" class="cls-7" x="28.28" y="27.68" width="106.17" height="107.32"/></g></g></g></g></g></g></g><path id="Path_137" data-name="Path 137" class="cls-8" d="M104.57,59.92a2.13,2.13,0,0,1-2.13,2.13H97.37V45.24h5.07a2.13,2.13,0,0,1,2.13,2.14h0Z" transform="translate(0 0.01)"/><path id="Path_138" data-name="Path 138" class="cls-9" d="M103.77,65.65a5.33,5.33,0,0,1-5.33-5.33V46.18a5.34,5.34,0,0,0-5.34-5.34H33.61a5.34,5.34,0,0,0-5.33,5.34v24a4.27,4.27,0,0,0,4.27,4.27H47a8.8,8.8,0,0,1,8.8-8.8H72.16a4.26,4.26,0,0,1,4.27,4.26v17.6h28V65.65Z" transform="translate(0 0.01)"/><rect id="Rectangle_107" data-name="Rectangle 107" class="cls-8" x="45.85" y="45.25" width="48.19" height="15.07"/><path id="Path_139" data-name="Path 139" class="cls-10" d="M106.71,101.93H28.28V90.72a4.27,4.27,0,0,1,4.27-4.26h69.89a4.27,4.27,0,0,1,4.27,4.26Z" transform="translate(0 0.01)"/><path id="Path_140" data-name="Path 140" class="cls-11" d="M68.16,52.58a4.67,4.67,0,1,1-4.67-4.67h0a4.67,4.67,0,0,1,4.67,4.67" transform="translate(0 0.01)"/><path id="Path_141" data-name="Path 141" class="cls-11" d="M87.54,52.58a4.67,4.67,0,1,1-4.67-4.67h0a4.67,4.67,0,0,1,4.67,4.67" transform="translate(0 0.01)"/><rect id="Rectangle_108" data-name="Rectangle 108" class="cls-11" x="40.69" y="29.24" width="6.27" height="11.6"/><rect id="Rectangle_109" data-name="Rectangle 109" class="cls-11" x="82.88" y="71.26" width="15.57" height="3.2"/><rect id="Rectangle_110" data-name="Rectangle 110" class="cls-11" x="82.88" y="80.2" width="15.57" height="3.2"/><rect id="Rectangle_111" data-name="Rectangle 111" class="cls-8" x="34.42" y="74.46" width="10.27" height="3.47"/><path id="Path_142" data-name="Path 142" class="cls-10" d="M41.75,77.92l-1.07,8.54-1.06-8.54Z" transform="translate(0 0.01)"/><rect id="Rectangle_112" data-name="Rectangle 112" class="cls-12" x="41.8" y="27.69" width="4.05" height="1.56"/><path id="Path_143" data-name="Path 143" class="cls-13" d="M28.33,90.19h78.32a4.24,4.24,0,0,0-4.21-3.73H32.55a4.25,4.25,0,0,0-4.22,3.73" transform="translate(0 0.01)"/><path id="Path_144" data-name="Path 144" class="cls-14" d="M59.58,55.11a4.19,4.19,0,0,0,.62.77,5,5,0,0,0,.76.62L67.41,50a4.65,4.65,0,0,0-.62-.77,4.13,4.13,0,0,0-.77-.61Z" transform="translate(0 0.01)"/><path id="Path_145" data-name="Path 145" class="cls-14" d="M79.27,49.62a4.52,4.52,0,0,0-.55.82,4.26,4.26,0,0,0-.35.92l8.1,4.18a4.52,4.52,0,0,0,.55-.82,4.85,4.85,0,0,0,.35-.92Z" transform="translate(0 0.01)"/><rect id="Rectangle_113" data-name="Rectangle 113" class="cls-15" x="36.89" y="40.85" width="5.34" height="29.03"/><rect id="Rectangle_114" data-name="Rectangle 114" class="cls-14" x="43.82" y="29.24" width="3.13" height="11.6"/></g></g></g></g></g></g></g></g></g></svg>