<svg xmlns="http://www.w3.org/2000/svg" viewBox="0 0 38 38"><defs><style>.cls-1{fill:#fff;isolation:isolate;opacity:0.9;}.cls-2{fill:#be4e62;opacity:0.7;}</style></defs><g id="Vrstva_2" data-name="Vrstva 2"><g id="Vrstva_1-2" data-name="Vrstva 1"><path id="Icon_awesome-angle-double-up" data-name="Icon awesome-angle-double-up" class="cls-1" d="M20.31,19.24l7.08,7.07a1.25,1.25,0,0,1,0,1.76h0l-1.17,1.17a1.25,1.25,0,0,1-1.76,0h0l-5-5-5,5a1.25,1.25,0,0,1-1.76,0h0l-1.18-1.18a1.25,1.25,0,0,1,0-1.76h0l7.07-7.08a1.24,1.24,0,0,1,1.76,0Zm-1.77-10-7.07,7.08a1.25,1.25,0,0,0,0,1.76h0l1.17,1.17a1.25,1.25,0,0,0,1.76,0h0l5-5,5,5a1.25,1.25,0,0,0,1.76,0h0l1.17-1.17a1.25,1.25,0,0,0,0-1.76h0L20.3,9.24a1.23,1.23,0,0,0-1.75,0Z"/><path class="cls-2" d="M19,0A19,19,0,1,0,38,19,19,19,0,0,0,19,0Zm0,36.5A17.5,17.5,0,1,1,36.5,19,17.5,17.5,0,0,1,19,36.5Z"/></g></g></svg>