<svg xmlns="http://www.w3.org/2000/svg" xmlns:xlink="http://www.w3.org/1999/xlink" viewBox="0 0 67.67 109.62"><defs><style>.cls-1{fill:none;}.cls-2{opacity:0.44;}.cls-3{clip-path:url(#clip-path);}.cls-4{fill:#969696;}.cls-5{fill:#dcdcdc;}.cls-6{fill:#f37138;}.cls-7{fill:#fff;}</style><clipPath id="clip-path"><rect class="cls-1" width="67.67" height="109.62"/></clipPath></defs><g id="Vrstva_2" data-name="Vrstva 2"><g id="Vrstva_1-2" data-name="Vrstva 1"><g id="Vrstva_2-2" data-name="Vrstva 2" class="cls-2"><g id="Vrstva_1-2-2" data-name="Vrstva 1-2"><g class="cls-3"><g id="Group_247" data-name="Group 247"><path id="Path_196" data-name="Path 196" class="cls-4" d="M34.52,89.23c-.12-5-.27-10.74-.42-16.93s-.34-12.81-.52-19.42c-.41-13.22-.81-26.44-1.12-36.35-.09-2.49-.18-4.76-.3-6.77S31.91,6,31.82,4.54C31.58,1.65,31.39,0,31.39,0S31.21,1.65,31,4.54c-.1,1.45-.21,3.21-.35,5.22s-.21,4.28-.29,6.77c-.31,9.91-.72,23.13-1.12,36.35-.18,6.61-.36,13.22-.52,19.42s-.3,12-.42,16.93c-.21,9.92-.36,16.53-.36,16.53v.17a3.63,3.63,0,0,0,3.56,3.69h0a3.66,3.66,0,0,0,3.4-3.86l-.35-16.53m-3.13,17.7c-.72,0-1.64.09-1.64-5.51s.74-14.78,1.64-14.78S33,95.82,33,101.42s-.92,5.51-1.64,5.51"/><rect id="Rectangle_152" data-name="Rectangle 152" class="cls-4" x="28.08" y="98.04" width="1.76" height="5.98"/><path id="Path_197" data-name="Path 197" class="cls-5" d="M34.52,89.23c-.12-5-.27-10.74-.42-16.93s-.34-12.81-.52-19.42c-.41-13.22-.81-26.44-1.12-36.35-.09-2.49-.18-4.76-.3-6.77S31.91,6,31.82,4.54C31.58,1.65,31.39,0,31.39,0S31.21,1.65,31,4.54c-.1,1.45-.21,3.21-.35,5.22s-.21,4.28-.29,6.77c-.31,9.91-.72,23.13-1.12,36.35-.18,6.61-.36,13.22-.52,19.42s-.3,12-.42,16.93c-.21,9.92-.36,16.53-.36,16.53v.17a3.63,3.63,0,0,0,3.56,3.69h0a3.66,3.66,0,0,0,3.4-3.86l-.35-16.53m-3.13,17.7c-.72,0-1.64.09-1.64-5.51s.74-14.78,1.64-14.78S33,95.82,33,101.42s-.92,5.51-1.64,5.51"/><path id="Path_198" data-name="Path 198" class="cls-6" d="M67.66,103.45c-7,0-13-2.62-17-7.28a19,19,0,0,1-2.64-4,36,36,0,0,1-30.81,9.1C2.92,98.56,0,88.6,0,74.47H1.16c0,13.55,2.76,23.1,16.28,25.63A34.75,34.75,0,0,0,47.54,91a23.61,23.61,0,0,1-1.28-12.75c.87-5.62,3-7,4.24-7.28a3.58,3.58,0,0,1,3.7,1.59C56.06,75,56.62,79.83,53.65,85a31.44,31.44,0,0,1-4.73,6.22,18.31,18.31,0,0,0,2.64,4.14c3.74,4.4,9.46,6.84,16.11,6.87ZM51.22,72.06a1.61,1.61,0,0,0-.44.06c-1.55.39-2.82,2.76-3.38,6.33a22.72,22.72,0,0,0,1,11.67,30.12,30.12,0,0,0,4.21-5.64c2.71-4.74,2.27-9,.63-11.2a2.7,2.7,0,0,0-2-1.22"/><path id="Path_199" data-name="Path 199" class="cls-7" d="M33,101.42c0,5.6-.91,5.51-1.64,5.51v2.68h.08a3.66,3.66,0,0,0,3.4-3.86l-.35-16.52c-.12-5-.27-10.75-.42-16.94s-.34-12.81-.52-19.42c-.41-13.22-.81-26.44-1.12-36.36-.09-2.47-.18-4.75-.3-6.76s-.22-3.75-.31-5.2C31.58,1.65,31.39,0,31.39,0V86.64c.91,0,1.64,9.18,1.64,14.78"/></g></g></g></g></g></g></svg>