<svg xmlns="http://www.w3.org/2000/svg" xmlns:xlink="http://www.w3.org/1999/xlink" viewBox="0 0 135 135"><defs><style>.cls-1{fill:none;}.cls-2{clip-path:url(#clip-path);}.cls-3{fill:#ffde17;}.cls-4{opacity:0.5;}.cls-5{clip-path:url(#clip-path-3);}.cls-6{clip-path:url(#clip-path-4);}.cls-7{fill:url(#Nepojmenovaný_přechod_8);}.cls-8{fill:#ff6432;}.cls-9{fill:#ff8232;}.cls-10{fill:#ff8c32;}.cls-11{fill:#ff6e32;}</style><clipPath id="clip-path"><rect class="cls-1" width="135" height="135"/></clipPath><clipPath id="clip-path-3"><rect class="cls-1" x="38.41" y="40.66" width="94.35" height="92.07"/></clipPath><clipPath id="clip-path-4"><path class="cls-1" d="M132.76,83.9l-.42,2.42a67.6,67.6,0,0,1-47.42,46.41h-1L41.84,91,38.41,60.83l16-20.17L92,42.88Z"/></clipPath><linearGradient id="Nepojmenovaný_přechod_8" x1="-4616.85" y1="256.99" x2="-4616.84" y2="256.99" gradientTransform="matrix(94.35, 0, 0, -92.07, 435609.24, 23747.35)" gradientUnits="userSpaceOnUse"><stop offset="0" stop-color="#a0a0a0"/><stop offset="1" stop-color="#dcdcdc"/></linearGradient></defs><g id="Vrstva_2" data-name="Vrstva 2"><g id="Vrstva_1-2" data-name="Vrstva 1"><g id="Group_177" data-name="Group 177"><g class="cls-2"><g id="Group_176" data-name="Group 176"><g id="Group_175" data-name="Group 175"><g class="cls-2"><g id="Group_174" data-name="Group 174"><path id="Path_146" data-name="Path 146" class="cls-3" d="M135,67.5A67.5,67.5,0,1,1,67.5,0,67.5,67.5,0,0,1,135,67.5"/><g id="Group_173" data-name="Group 173" class="cls-4"><g id="Group_172" data-name="Group 172"><g class="cls-5"><g id="Group_171" data-name="Group 171"><g id="Group_170" data-name="Group 170"><g class="cls-6"><g id="Group_169" data-name="Group 169"><rect id="Rectangle_117" data-name="Rectangle 117" class="cls-7" x="38.41" y="40.66" width="94.35" height="92.07"/></g></g></g></g></g></g></g><path id="Path_148" data-name="Path 148" class="cls-8" d="M67.49,32.74a34.76,34.76,0,1,0,34.76,34.77A34.77,34.77,0,0,0,67.49,32.74h0m8.1,39.09a3.54,3.54,0,1,1-3.54,3.54,3.53,3.53,0,0,1,3.54-3.54h0M72.05,59.65a3.54,3.54,0,1,1,3.54,3.54h0a3.54,3.54,0,0,1-3.54-3.54m-13,3.54a3.54,3.54,0,1,1,3.54-3.54,3.54,3.54,0,0,1-3.54,3.54m3.54,12.18a3.54,3.54,0,1,1-3.54-3.54,3.54,3.54,0,0,1,3.54,3.54"/><path id="Path_149" data-name="Path 149" class="cls-9" d="M67.49,37.66A29.84,29.84,0,1,0,97.33,67.51,29.86,29.86,0,0,0,67.49,37.66h0m4.56,37.7a3.54,3.54,0,1,1,3.54,3.54,3.54,3.54,0,0,1-3.54-3.54m3.54-12.17a3.54,3.54,0,1,1,3.54-3.54,3.54,3.54,0,0,1-3.54,3.54M55.54,75.36a3.54,3.54,0,1,1,3.54,3.54,3.53,3.53,0,0,1-3.54-3.54m3.54-12.17a3.54,3.54,0,1,1,3.54-3.54,3.54,3.54,0,0,1-3.54,3.54"/><path id="Path_150" data-name="Path 150" class="cls-8" d="M67.49,47.05A20.45,20.45,0,1,0,88,67.51,20.46,20.46,0,0,0,67.49,47.05h0M59.08,78.91a3.54,3.54,0,1,1,3.54-3.54,3.54,3.54,0,0,1-3.54,3.54m0-15.72a3.54,3.54,0,1,1,3.54-3.54,3.55,3.55,0,0,1-3.54,3.54M75.6,78.91a3.54,3.54,0,1,1,3.54-3.55h0a3.56,3.56,0,0,1-3.54,3.54m0-15.72a3.54,3.54,0,1,1,3.54-3.54,3.53,3.53,0,0,1-3.54,3.54"/><path id="Path_151" data-name="Path 151" class="cls-10" d="M97.33,67.51A29.84,29.84,0,0,0,67.49,37.66h0V97.34A29.83,29.83,0,0,0,97.33,67.51h0M75.6,56.11a3.54,3.54,0,1,1-3.54,3.54,3.53,3.53,0,0,1,3.54-3.54h0m0,15.72a3.54,3.54,0,1,1-3.54,3.54h0a3.52,3.52,0,0,1,3.52-3.54h0"/><path id="Path_152" data-name="Path 152" class="cls-11" d="M87.94,67.51A20.44,20.44,0,0,0,67.5,47.05h0V88A20.43,20.43,0,0,0,87.94,67.51h0M75.6,56.11a3.54,3.54,0,1,1-3.54,3.54,3.53,3.53,0,0,1,3.54-3.54h0m0,15.72a3.54,3.54,0,1,1-3.54,3.54,3.54,3.54,0,0,1,3.54-3.54h0"/></g></g></g></g></g></g></g></g></svg>