<svg xmlns="http://www.w3.org/2000/svg" xmlns:xlink="http://www.w3.org/1999/xlink" viewBox="0 0 51.5 51.5"><defs><style>.cls-1{fill:none;}.cls-2{opacity:0.61;}.cls-3{opacity:0.5;}.cls-4{clip-path:url(#clip-path);}.cls-5{fill:#ff6432;}.cls-6{fill:#ff8232;}.cls-7{fill:#ff8c32;}.cls-8{fill:#ff6e32;}</style><clipPath id="clip-path" transform="translate(0 0)"><rect class="cls-1" width="51.5" height="51.5"/></clipPath></defs><g id="Vrstva_2" data-name="Vrstva 2"><g id="Vrstva_1-2" data-name="Vrstva 1"><g id="Vrstva_2-2" data-name="Vrstva 2" class="cls-2"><g id="Vrstva_1-2-2" data-name="Vrstva 1-2"><g id="Group_246" data-name="Group 246" class="cls-3"><g class="cls-4"><g id="Group_245" data-name="Group 245"><path id="Path_191" data-name="Path 191" class="cls-5" d="M25.74,0A25.75,25.75,0,1,0,51.5,25.75,25.75,25.75,0,0,0,25.74,0h0m6,29a2.62,2.62,0,1,1-2.62,2.62h0A2.63,2.63,0,0,1,31.73,29h0m-2.62-9a2.63,2.63,0,1,1,2.64,2.62h0A2.62,2.62,0,0,1,29.11,20M19.5,22.62A2.62,2.62,0,1,1,22.12,20h0a2.62,2.62,0,0,1-2.62,2.62m2.62,9A2.62,2.62,0,1,1,19.5,29h0a2.62,2.62,0,0,1,2.62,2.62" transform="translate(0 0)"/><path id="Path_192" data-name="Path 192" class="cls-6" d="M25.74,3.64A22.1,22.1,0,1,0,47.85,25.75,22.09,22.09,0,0,0,25.74,3.64h0m3.39,27.93a2.62,2.62,0,1,1,2.62,2.63,2.62,2.62,0,0,1-2.62-2.63v0m2.62-9A2.62,2.62,0,1,1,34.37,20h0a2.62,2.62,0,0,1-2.62,2.62m-14.86,9a2.63,2.63,0,1,1,2.63,2.63h0a2.62,2.62,0,0,1-2.62-2.62h0m2.62-9A2.62,2.62,0,1,1,22.14,20a2.62,2.62,0,0,1-2.63,2.62" transform="translate(0 0)"/><path id="Path_193" data-name="Path 193" class="cls-5" d="M25.74,10.6A15.15,15.15,0,1,0,40.9,25.75,15.15,15.15,0,0,0,25.74,10.6h0M19.51,34.2a2.62,2.62,0,1,1,2.63-2.62h0a2.64,2.64,0,0,1-2.63,2.62m0-11.64a2.62,2.62,0,1,1,2.63-2.62,2.62,2.62,0,0,1-2.63,2.62M31.75,34.2a2.62,2.62,0,1,1,2.62-2.62h0a2.64,2.64,0,0,1-2.62,2.62m0-11.64a2.62,2.62,0,1,1,2.62-2.62h0a2.62,2.62,0,0,1-2.62,2.62" transform="translate(0 0)"/><path id="Path_194" data-name="Path 194" class="cls-7" d="M47.85,25.75A22.11,22.11,0,0,0,25.75,3.64h0V47.85a22.09,22.09,0,0,0,22.1-22.08h0m-16.1-8.44A2.63,2.63,0,1,1,29.13,20v0h0a2.61,2.61,0,0,1,2.6-2.62h0m0,11.64a2.62,2.62,0,1,1-2.62,2.62h0A2.61,2.61,0,0,1,31.74,29h0" transform="translate(0 0)"/><path id="Path_195" data-name="Path 195" class="cls-8" d="M40.9,25.75A15.16,15.16,0,0,0,25.76,10.6h0V40.9A15.15,15.15,0,0,0,40.9,25.76h0m-9.15-8.44A2.63,2.63,0,1,1,29.13,20v0h0a2.63,2.63,0,0,1,2.61-2.62h0m0,11.64a2.62,2.62,0,1,1-2.62,2.62h0A2.62,2.62,0,0,1,31.74,29h0" transform="translate(0 0)"/></g></g></g></g></g></g></g></svg>