<svg xmlns="http://www.w3.org/2000/svg" xmlns:xlink="http://www.w3.org/1999/xlink" viewBox="0 0 115.55 102.07"><defs><style>.cls-1{fill:none;}.cls-2{opacity:0.28;}.cls-3{fill:#c8c8c8;}.cls-4{clip-path:url(#clip-path);}.cls-5{fill:#f3c333;}.cls-6{fill:#ffd21e;}.cls-7{fill:#878787;}.cls-8{fill:#ff6432;}.cls-9{fill:#3296a0;}.cls-10{fill:#969696;}.cls-11{fill:#ff8c28;}.cls-12{fill:#5dc1d4;}.cls-13{fill:#fdc00f;}.cls-14{fill:#dcdcdc;}</style><clipPath id="clip-path" transform="translate(0 -15.46)"><rect class="cls-1" x="22.55" y="3.27" width="87.52" height="111" transform="translate(-10.08 103.67) rotate(-72)"/></clipPath></defs><g id="Vrstva_2" data-name="Vrstva 2"><g id="Vrstva_1-2" data-name="Vrstva 1"><g id="Vrstva_2-2" data-name="Vrstva 2" class="cls-2"><g id="Vrstva_1-2-2" data-name="Vrstva 1-2"><g id="Group_261" data-name="Group 261"><path id="Path_260" data-name="Path 260" class="cls-3" d="M5.1,73.22,0,83.23l105.56,34.3,1.77-11.1Z" transform="translate(0 -15.46)"/><g id="Group_260" data-name="Group 260"><g class="cls-4"><g id="Group_259" data-name="Group 259"><path id="Path_261" data-name="Path 261" class="cls-5" d="M102.32,104.81l-92.22-30C17,53.66,43.19,43.21,68.66,51.48s40.55,32.14,33.67,53.33" transform="translate(0 -15.46)"/><path id="Path_262" data-name="Path 262" class="cls-6" d="M102.32,104.81c6.89-21.19-8.19-45-33.66-53.33L56.2,89.82Z" transform="translate(0 -15.46)"/><rect id="Rectangle_165" data-name="Rectangle 165" class="cls-7" x="20.94" y="49.76" width="1.83" height="17.57" transform="translate(-23.69 0.29) rotate(-26.31)"/><path id="Path_263" data-name="Path 263" class="cls-8" d="M21.29,51.75A3.49,3.49,0,1,1,19,47.33a3.48,3.48,0,0,1,2.29,4.42h0" transform="translate(0 -15.46)"/><rect id="Rectangle_166" data-name="Rectangle 166" class="cls-7" x="17.46" y="46.79" width="33.97" height="1.75" transform="translate(-14.12 65.38) rotate(-88.48)"/><path id="Path_264" data-name="Path 264" class="cls-9" d="M38.21,31.76A3.51,3.51,0,1,1,36,27.33h0a3.49,3.49,0,0,1,2.26,4.39v0" transform="translate(0 -15.46)"/><path id="Path_265" data-name="Path 265" class="cls-10" d="M88.2,19.9a2,2,0,0,0-2.73.74l0,0h0L57.72,69.86l1.51.89,29.69-48v-.07A2,2,0,0,0,88.2,20l0,0h0m-1.51,4.46c-.26.4-.63.78-.94,1.19-1.24,1.65-2.62,3.23-2.62,3.23a.1.1,0,0,1-.13,0,.17.17,0,0,1,0-.1s.71-2,1.56-3.85c.2-.48.36-1,.58-1.41a5.42,5.42,0,0,1,.85-1,4.26,4.26,0,0,1,1.19-.79.11.11,0,0,1,.14.05h0a4.18,4.18,0,0,1-.13,1.41,3.92,3.92,0,0,1-.49,1.24" transform="translate(0 -15.46)"/><rect id="Rectangle_167" data-name="Rectangle 167" class="cls-7" x="34.06" y="39.62" width="45" height="1.75" transform="translate(1.36 67.37) rotate(-73.09)"/><path id="Path_266" data-name="Path 266" class="cls-6" d="M66.44,20.05a3.51,3.51,0,1,1-2.25-4.42h0a3.5,3.5,0,0,1,2.25,4.42h0" transform="translate(0 -15.46)"/><rect id="Rectangle_168" data-name="Rectangle 168" class="cls-7" x="73.88" y="60.81" width="44.99" height="1.75" transform="translate(-15.04 72.33) rotate(-45.81)"/><path id="Path_267" data-name="Path 267" class="cls-11" d="M114.5,48a3.25,3.25,0,1,1,.07-.06l-.07.06h0" transform="translate(0 -15.46)"/><rect id="Rectangle_169" data-name="Rectangle 169" class="cls-7" x="72.92" y="55.78" width="17.55" height="1.82" transform="translate(-15.72 61.25) rotate(-46.37)"/><path id="Path_268" data-name="Path 268" class="cls-12" d="M87.88,53.85a3.51,3.51,0,1,1,3.37-3.64h0a3.5,3.5,0,0,1-3.37,3.63h0" transform="translate(0 -15.46)"/><rect id="Rectangle_170" data-name="Rectangle 170" class="cls-7" x="82.41" y="76.2" width="33.97" height="1.75" transform="translate(-25.55 76.12) rotate(-44.41)"/><path id="Path_269" data-name="Path 269" class="cls-13" d="M113.16,68.26a3.5,3.5,0,1,1,1.46-4.74,3.49,3.49,0,0,1-1.46,4.74h0" transform="translate(0 -15.46)"/><path id="Path_270" data-name="Path 270" class="cls-10" d="M46.06,71.11l3.26-52.9v-.09a2,2,0,0,0-4-.13h0v.06l-1,53ZM47,26.4a.1.1,0,0,1-.07-.07s-.3-2.07-.44-4.13c-.05-.51-.15-1-.16-1.51a5.45,5.45,0,0,1,.27-1.31,4.82,4.82,0,0,1,.66-1.25.12.12,0,0,1,.16,0h0a4.17,4.17,0,0,1,.56,1.3,4.23,4.23,0,0,1,.16,1.32,10.31,10.31,0,0,1-.27,1.5c-.31,2-.78,4.08-.78,4.08a.08.08,0,0,1-.1.07h0" transform="translate(0 -15.46)"/><path id="Path_271" data-name="Path 271" class="cls-14" d="M106.9,109.12l.43-2.68L5.1,73.22,3.86,75.64Z" transform="translate(0 -15.46)"/></g></g></g></g></g></g></g></g></svg>