<svg xmlns="http://www.w3.org/2000/svg" viewBox="0 0 29.22 20.25"><defs><style>.cls-1{opacity:0.65;}.cls-2{fill:#f2f2f2;}</style></defs><g id="Vrstva_2" data-name="Vrstva 2"><g id="Vrstva_1-2" data-name="Vrstva 1"><g id="Vrstva_2-2" data-name="Vrstva 2"><g id="Vrstva_1-2-2" data-name="Vrstva 1-2"><g id="Icon_ionic-ios-mail" data-name="Icon ionic-ios-mail" class="cls-1"><path id="Path_320" data-name="Path 320" class="cls-2" d="M29,2.48l-7.56,7.71a.13.13,0,0,0,0,.18h0L26.71,16a.9.9,0,0,1,0,1.26l0,0h0a.91.91,0,0,1-1.29,0h0L20.14,11.7a.15.15,0,0,0-.2,0L18.66,13a5.73,5.73,0,0,1-4,1.7A5.83,5.83,0,0,1,10.5,13L9.26,11.7a.15.15,0,0,0-.2,0L3.78,17.32a.92.92,0,0,1-1.29,0,.91.91,0,0,1,0-1.29h0L7.78,10.4a.15.15,0,0,0,0-.2L.21,2.48a.15.15,0,0,0-.2,0,.17.17,0,0,0,0,.1V18a2.25,2.25,0,0,0,2.25,2.25H27A2.25,2.25,0,0,0,29.22,18V2.58a.14.14,0,0,0-.14-.14A.15.15,0,0,0,29,2.48Z"/><path id="Path_321" data-name="Path 321" class="cls-2" d="M14.6,12.87a3.81,3.81,0,0,0,2.74-1.14L28.38.49A2.26,2.26,0,0,0,27,0H2.21A2.18,2.18,0,0,0,.82.49l11,11.24A3.82,3.82,0,0,0,14.6,12.87Z"/></g></g></g></g></g></svg>