<svg xmlns="http://www.w3.org/2000/svg" xmlns:xlink="http://www.w3.org/1999/xlink" viewBox="0 0 134.98 135.03"><defs><style>.cls-1{fill:none;}.cls-2{clip-path:url(#clip-path);}.cls-3{fill:#ffde17;}.cls-4{opacity:0.6;}.cls-5{clip-path:url(#clip-path-2);}.cls-6{fill:url(#Nepojmenovaný_přechod_3);}.cls-7{fill:#f37138;}.cls-8{fill:#ff6432;}.cls-9{fill:#dcdcdc;}.cls-10{fill:#ff7332;}.cls-11{fill:#ff9614;}.cls-12{fill:#fff;}</style><clipPath id="clip-path" transform="translate(-0.09 0.03)"><rect class="cls-1" width="135" height="135"/></clipPath><clipPath id="clip-path-2" transform="translate(-0.09 0.03)"><path class="cls-1" d="M134.57,75.68a67.55,67.55,0,0,1-57.06,58.59L71,134.7,44.52,108.45l29.35-88.2,6,6.29h1.42l17.9,18.58,4.37-1,2.21,1.53,28.66,28.74Z"/></clipPath><linearGradient id="Nepojmenovaný_přechod_3" x1="-197.06" y1="519.84" x2="-197.05" y2="519.84" gradientTransform="matrix(102.25, -102.25, -102.25, -102.25, 73328.18, 33145.14)" gradientUnits="userSpaceOnUse"><stop offset="0" stop-color="#a0a0a0"/><stop offset="1" stop-color="#dcdcdc"/></linearGradient></defs><g id="Vrstva_2" data-name="Vrstva 2"><g id="Vrstva_1-2" data-name="Vrstva 1"><g class="cls-2"><g id="Group_210" data-name="Group 210"><path id="Path_168" data-name="Path 168" class="cls-3" d="M135.07,67.5A67.49,67.49,0,1,1,75.78.5a67.78,67.78,0,0,1,59.29,67" transform="translate(-0.09 0.03)"/><g id="Group_209" data-name="Group 209" class="cls-4"><g id="Group_208" data-name="Group 208"><g id="Group_207" data-name="Group 207"><g id="Group_206" data-name="Group 206"><g class="cls-5"><g id="Group_205" data-name="Group 205"><polygon id="Rectangle_138" data-name="Rectangle 138" class="cls-6" points="9.23 55.48 64.71 0 114.2 0 134.94 20.74 134.53 134.68 44.73 135.03 6.87 97.17 9.23 55.48"/></g></g></g></g></g></g><path id="Path_170" data-name="Path 170" class="cls-7" d="M113.11,78.1c-.66-.06-1.32-.1-2-.15-5.57-.39-11.33-.79-15.23-5.71a16.53,16.53,0,0,1-2.81-5.37A54.43,54.43,0,0,1,77.5,73.24a36.31,36.31,0,0,1-18.4-.3l.38-1.28A34.89,34.89,0,0,0,77.2,72a53.25,53.25,0,0,0,15.52-6.4,22.47,22.47,0,0,1-.4-7.27A22.56,22.56,0,0,1,95.4,50c1.46-2.65,3.82-6.18,7.23-6a3.87,3.87,0,0,1,3.19,1.67c1.26,1.82,1.11,4.72.4,6.78-1.85,5.45-6.43,10.12-12,13.73a15.45,15.45,0,0,0,2.69,5.28c3.53,4.46,8.76,4.82,14.28,5.21.67.05,1.34.09,2,.15ZM102.46,45.29c-2.63,0-4.63,3.05-5.9,5.35a21.55,21.55,0,0,0-2.93,7.78,21,21,0,0,0,.28,6.37C99.05,61.38,103.25,57,105,52c.6-1.75.7-4.24-.24-5.61a2.54,2.54,0,0,0-2.15-1.09h-.13" transform="translate(-0.09 0.03)"/><rect id="Rectangle_140" data-name="Rectangle 140" class="cls-8" x="44.44" y="26.57" width="36.81" height="81.91"/><rect id="Rectangle_141" data-name="Rectangle 141" class="cls-9" x="51.9" y="20.28" width="21.88" height="6.3"/><rect id="Rectangle_142" data-name="Rectangle 142" class="cls-10" x="62.84" y="26.57" width="18.41" height="81.91"/><path id="Path_171" data-name="Path 171" class="cls-11" d="M51.81,26.54l-7.29,1.95V27.12l2.18-.58Z" transform="translate(-0.09 0.03)"/><path id="Path_172" data-name="Path 172" class="cls-11" d="M72.64,26.54,44.52,34.07V32.69l23-6.15Z" transform="translate(-0.09 0.03)"/><path id="Path_173" data-name="Path 173" class="cls-11" d="M81.34,28.41v1.38L44.53,39.65V38.27Z" transform="translate(-0.09 0.03)"/><path id="Path_174" data-name="Path 174" class="cls-11" d="M81.34,34v1.38L44.53,45.22V43.84Z" transform="translate(-0.09 0.03)"/><path id="Path_175" data-name="Path 175" class="cls-11" d="M81.34,39.55v1.38L44.53,50.8V49.41Z" transform="translate(-0.09 0.03)"/><path id="Path_176" data-name="Path 176" class="cls-11" d="M81.34,45.13v1.38L44.53,56.38V55Z" transform="translate(-0.09 0.03)"/><path id="Path_177" data-name="Path 177" class="cls-11" d="M81.34,50.72V52.1L44.53,62V60.58Z" transform="translate(-0.09 0.03)"/><path id="Path_178" data-name="Path 178" class="cls-11" d="M81.34,56.3v1.38L44.53,67.55V66.17Z" transform="translate(-0.09 0.03)"/><path id="Path_179" data-name="Path 179" class="cls-11" d="M81.34,61.87v1.38L44.53,73.12V71.74Z" transform="translate(-0.09 0.03)"/><path id="Path_180" data-name="Path 180" class="cls-11" d="M81.34,67.44v1.38L44.53,78.68V77.3Z" transform="translate(-0.09 0.03)"/><path id="Path_181" data-name="Path 181" class="cls-11" d="M81.34,73V74.4L44.53,84.27V82.89Z" transform="translate(-0.09 0.03)"/><path id="Path_182" data-name="Path 182" class="cls-11" d="M81.34,78.61V80L44.53,89.85V88.47Z" transform="translate(-0.09 0.03)"/><path id="Path_183" data-name="Path 183" class="cls-11" d="M81.34,84.19v1.38L44.53,95.44V94.06Z" transform="translate(-0.09 0.03)"/><path id="Path_184" data-name="Path 184" class="cls-11" d="M81.34,89.76v1.38L44.53,101V99.63Z" transform="translate(-0.09 0.03)"/><path id="Path_185" data-name="Path 185" class="cls-11" d="M81.34,95.33v1.38l-36.81,9.87V105.2Z" transform="translate(-0.09 0.03)"/><path id="Path_186" data-name="Path 186" class="cls-11" d="M81.34,100.91v1.38l-23,6.16H53.22Z" transform="translate(-0.09 0.03)"/><path id="Path_187" data-name="Path 187" class="cls-11" d="M81.34,106.5v1.36l-2.17.58h-5.1Z" transform="translate(-0.09 0.03)"/><rect id="Rectangle_143" data-name="Rectangle 143" class="cls-12" x="62.84" y="20.28" width="10.94" height="6.3"/><rect id="Rectangle_144" data-name="Rectangle 144" class="cls-9" x="51.9" y="108.48" width="21.88" height="6.3"/><rect id="Rectangle_145" data-name="Rectangle 145" class="cls-12" x="62.84" y="108.48" width="10.94" height="6.3"/></g></g></g></g></svg>