<svg xmlns="http://www.w3.org/2000/svg" xmlns:xlink="http://www.w3.org/1999/xlink" viewBox="0 0 135 135"><defs><style>.cls-1{fill:none;}.cls-2{clip-path:url(#clip-path);}.cls-3{fill:#ffde17;}.cls-4{opacity:0.5;}.cls-5{clip-path:url(#clip-path-3);}.cls-6{clip-path:url(#clip-path-4);}.cls-7{fill:url(#Nepojmenovaný_přechod_8);}.cls-8{fill:#3296a0;}.cls-9{fill:#dcdcdc;}.cls-10{fill:#c8c8c8;}.cls-11{fill:#3ca0aa;}</style><clipPath id="clip-path"><rect class="cls-1" width="135" height="135"/></clipPath><clipPath id="clip-path-3"><rect class="cls-1" x="47.86" y="13.5" width="86.18" height="121.23"/></clipPath><clipPath id="clip-path-4"><path class="cls-1" d="M134,75.33l-.07,4a67.56,67.56,0,0,1-57.29,55.08l-14.86.35-14-13.57,2.9-2.21L67.5,106,66.23,90.18l-13.16-13,9.6-42.53L71.85,13.5l8.75,9,3.26,2Z"/></clipPath><linearGradient id="Nepojmenovaný_přechod_8" x1="-4901.36" y1="487.9" x2="-4901.34" y2="487.9" gradientTransform="matrix(86.18, 0, 0, -121.23, 422418.6, 59222.11)" gradientUnits="userSpaceOnUse"><stop offset="0" stop-color="#a0a0a0"/><stop offset="1" stop-color="#dcdcdc"/></linearGradient></defs><g id="Vrstva_2" data-name="Vrstva 2"><g id="Vrstva_1-2" data-name="Vrstva 1"><g id="Group_204" data-name="Group 204"><g class="cls-2"><g id="Group_203" data-name="Group 203"><g id="Group_202" data-name="Group 202"><g class="cls-2"><g id="Group_201" data-name="Group 201"><path id="Path_163" data-name="Path 163" class="cls-3" d="M135,67.5a67.41,67.41,0,0,1-58.32,66.88,68.72,68.72,0,0,1-9.18.62A67.5,67.5,0,1,1,135,67.5"/><g id="Group_200" data-name="Group 200" class="cls-4"><g id="Group_199" data-name="Group 199"><g class="cls-5"><g id="Group_198" data-name="Group 198"><g id="Group_197" data-name="Group 197"><g class="cls-6"><g id="Group_196" data-name="Group 196"><rect id="Rectangle_129" data-name="Rectangle 129" class="cls-7" x="47.86" y="13.5" width="86.18" height="121.23"/></g></g></g></g></g></g></g><path id="Path_165" data-name="Path 165" class="cls-8" d="M67.5,77.18H81.92s.1-5.77.1-14.06-4.51-14.79-4.51-21.19c0-7.87,7.34-10.91,7.34-10.91v-4.3c0-5.25-13-4.41-13-13.22h-8.7c0,8.81-13,8-13,13.22V31s7.34,3,7.34,10.91c0,6.4-4.51,12.9-4.51,21.19s.1,14.06.1,14.06Z"/><path id="Path_166" data-name="Path 166" class="cls-9" d="M49.86,121.5l-1.56-2,17.93-14.1V77.18h2.52v29.46Z"/><rect id="Rectangle_131" data-name="Rectangle 131" class="cls-9" x="75.44" y="101.56" width="2.52" height="23.42" transform="translate(-59.75 103.55) rotate(-51.82)"/><rect id="Rectangle_132" data-name="Rectangle 132" class="cls-9" x="66.24" y="106.03" width="2.52" height="14.48"/><rect id="Rectangle_133" data-name="Rectangle 133" class="cls-10" x="47.86" y="118.43" width="6.53" height="2.74"/><rect id="Rectangle_134" data-name="Rectangle 134" class="cls-10" x="80.6" y="118.43" width="6.53" height="2.74"/><rect id="Rectangle_135" data-name="Rectangle 135" class="cls-10" x="64.23" y="118.43" width="6.53" height="2.74"/><path id="Path_167" data-name="Path 167" class="cls-11" d="M81.92,77.18s.1-5.77.1-14.06-4.51-14.79-4.51-21.19c0-7.87,7.34-10.91,7.34-10.91v-4.3c0-5.25-13-4.41-13-13.22H67.5V77.18Z"/></g></g></g></g></g></g></g></g></svg>