<svg xmlns="http://www.w3.org/2000/svg" viewBox="0 0 27 27"><defs>
<style>.cls-1{isolation:isolate;opacity:0.65;}</style>
</defs><g id="Vrstva_2" data-name="Vrstva 2"><g id="Vrstva_1-2" data-name="Vrstva 1">
<path id="Icon_awesome-phone-alt" data-name="Icon awesome-phone-alt" class="cls-1" 
d="M26.23,19.08l-5.91-2.53a1.27,1.27,0,0,0-1.47.36l-2.62,3.2a19.53,19.53,0,0,1-9.34-9.34l3.2-2.62a1.27,1.27,0,0,0,.36-1.47L7.92.77A1.28,1.28,0,0,0,6.47,0L1,1.3A1.26,1.26,0,0,0,0,2.53,24.47,24.47,0,0,0,24.46,27h0a1.26,1.26,0,0,0,1.23-1L27,20.54a1.3,1.3,0,0,0-.74-1.46Z"/></g></g></svg>