<svg xmlns="http://www.w3.org/2000/svg" xmlns:xlink="http://www.w3.org/1999/xlink" viewBox="0 0 134.94 134.95"><defs><style>.cls-1{fill:none;}.cls-2{clip-path:url(#clip-path);}.cls-3{fill:#ffde17;}.cls-4{opacity:0.5;}.cls-5{clip-path:url(#clip-path-3);}.cls-6{clip-path:url(#clip-path-4);}.cls-7{fill:url(#Nepojmenovaný_přechod_8);}.cls-8{fill:#5dc1d4;}.cls-9{fill:#3296a0;}.cls-10{fill:#f7c83e;}</style><clipPath id="clip-path" transform="translate(-0.01 0)"><rect class="cls-1" width="135" height="135"/></clipPath><clipPath id="clip-path-3" transform="translate(-0.01 0)"><rect class="cls-1" x="43.81" y="13.72" width="90.75" height="121.23"/></clipPath><clipPath id="clip-path-4" transform="translate(-0.01 0)"><path class="cls-1" d="M134.56,70l0,5a67.45,67.45,0,0,1-67,60c-.45,0-.88,0-1.33,0l-20.28-20.2-2.06-11.64L47.52,94l4.07-5.4,6.72-1,5.74,4.9,3.39-7.78L56.63,43.21,56,13.72l17.3,17.67,5.6-17.67Z"/></clipPath><linearGradient id="Nepojmenovaný_přechod_8" x1="-5171.99" y1="488.9" x2="-5171.97" y2="488.9" gradientTransform="matrix(90.75, 0, 0, -121.23, 469383.59, 59342.09)" gradientUnits="userSpaceOnUse"><stop offset="0" stop-color="#a0a0a0"/><stop offset="1" stop-color="#dcdcdc"/></linearGradient></defs><g id="Vrstva_2" data-name="Vrstva 2"><g id="Vrstva_1-2" data-name="Vrstva 1"><g id="Group_150" data-name="Group 150"><g class="cls-2"><g id="Group_149" data-name="Group 149"><g id="Group_148" data-name="Group 148"><g class="cls-2"><g id="Group_147" data-name="Group 147"><path id="Path_89" data-name="Path 89" class="cls-3" d="M135,67.48a64.94,64.94,0,0,1-.42,7.51,67.46,67.46,0,0,1-67.06,60c-.44,0-.87,0-1.32,0A67.47,67.47,0,1,1,135,67.48" transform="translate(-0.01 0)"/><g id="Group_146" data-name="Group 146" class="cls-4"><g id="Group_145" data-name="Group 145"><g class="cls-5"><g id="Group_144" data-name="Group 144"><g id="Group_143" data-name="Group 143"><g class="cls-6"><g id="Group_142" data-name="Group 142"><rect id="Rectangle_72" data-name="Rectangle 72" class="cls-7" x="43.79" y="13.72" width="90.75" height="121.23"/></g></g></g></g></g></g></g><path id="Path_91" data-name="Path 91" class="cls-8" d="M91.53,98.3C82.77,75.79,70.89,91,70.89,91L56,13.73s-6.77,20.17-3.6,35.8c3.32,16.32,9,26.56,13.14,36,2.7,6.18,5.54,20.43,9.84,28,6.36,11.15,22-.09,16.1-15.16m-7.16,14.17c-3.55,1.1-8-3-9.91-9.22s-.6-12.11,3-13.22,8,3,9.91,9.23.6,12.1-3,13.21" transform="translate(-0.01 0)"/><path id="Path_92" data-name="Path 92" class="cls-9" d="M78.93,13.73,64.08,91S52.2,75.79,43.44,98.3c-5.86,15.08,9.75,26.31,16.1,15.16,4.3-7.55,7.15-21.8,9.85-28,4.1-9.38,9.82-19.62,13.13-35.95,3.18-15.63-3.6-35.8-3.6-35.8m-18.4,89.52c-1.93,6.19-6.36,10.32-9.91,9.22s-4.88-7-3-13.22S54,88.93,57.56,90s4.87,7,3,13.22" transform="translate(-0.01 0)"/><path id="Path_93" data-name="Path 93" class="cls-10" d="M68.69,84.07a1.25,1.25,0,1,1-1.25-1.25h0a1.25,1.25,0,0,1,1.25,1.25h0" transform="translate(-0.01 0)"/></g></g></g></g></g></g></g></g></svg>