<svg xmlns="http://www.w3.org/2000/svg" viewBox="0 0 468 479.45"><defs><style>.cls-1{fill:#f3f5f7;}.cls-2{fill:#fef5f6;}.cls-3{fill:#5d9c92;}.cls-4{fill:#caddda;}.cls-5{fill:#88c0b9;}.cls-6{fill:#9acbc4;}.cls-7{opacity:0.6;}.cls-8{fill:#a6e8de;}.cls-9{fill:#df5694;stroke:#aa4377;stroke-miterlimit:10;stroke-width:8px;}.cls-10{fill:#f66ba1;}</style></defs><g id="Vrstva_2" data-name="Vrstva 2"><g id="Vrstva_1-2" data-name="Vrstva 1"><g id="Vrstva_2-2" data-name="Vrstva 2"><g id="Vrstva_7" data-name="Vrstva 7"><path id="Path_52" data-name="Path 52" class="cls-1" d="M415.42,351.55,141.82,452.37a60.9,60.9,0,0,1-77-38.57L8.27,225.8a60.89,60.89,0,0,1,38.58-77L249.76,10.48a60.88,60.88,0,0,1,77,38.54v0L454,274.55a60.89,60.89,0,0,1-38.57,77Z"/><path id="Path_53" data-name="Path 53" class="cls-2" d="M145.84,21.2,18.67,230.7a43.14,43.14,0,0,1-5.91,7.68,45.36,45.36,0,0,0-1.71,61.21L164.31,463.74A45.38,45.38,0,0,0,220,474.09,42.5,42.5,0,0,0,230.61,466L451.44,235.85c.63-.66,1.29-1.31,2-1.92a45.22,45.22,0,0,0,9-11.2,43.71,43.71,0,0,0-14.55-58.15S213.34,12,213.12,11.76C193-7.28,160.24-2.53,145.84,21.2Z"/><path id="Rectangle_64" data-name="Rectangle 64" class="cls-3" d="M35.85,113.94h0a4.94,4.94,0,0,1,4.94,4.94V236.43a4.94,4.94,0,0,1-4.94,4.94h0a5,5,0,0,1-4.94-4.94V118.88A4.94,4.94,0,0,1,35.85,113.94Z"/><rect id="Rectangle_65" data-name="Rectangle 65" class="cls-3" x="38.01" y="136.74" width="30.91" height="77.27"/><rect id="Rectangle_66" data-name="Rectangle 66" class="cls-4" x="346.31" y="295.58" width="6.08" height="66.63"/><rect id="Rectangle_67" data-name="Rectangle 67" class="cls-4" x="347.58" y="145.35" width="32.93" height="40.28" rx="16.47"/><path id="Path_54" data-name="Path 54" class="cls-3" d="M106.49,103.3h26.05a1.42,1.42,0,0,1,1.42,1.42h0v3.65H105.08v-3.65a1.41,1.41,0,0,1,1.41-1.42Z"/><path id="Path_55" data-name="Path 55" class="cls-5" d="M180.63,353.34s3-19-21-54.22c-13.11-19.18-5.58-77.51,23.56-79.8,45.61-3.56,78.28-2.28,113.86,0,30.28,2,24.44,78.28,51.82,78.28,39,0,23-157.31,23-157.31s-6-58.42-52.27-10.32a61.59,61.59,0,0,0-3.87,5.1c-2.47,3.19-13.93,11.34-61.15,3.19-57.26-9.88-72.2-34.45-131.48-34.2-21.93.1-63.08,8.36-63.08,68.65s13.68,60,12.41,85.12c-1.36,26.86-19,65.36-16,89.43S180.63,353.34,180.63,353.34Z"/><rect id="Rectangle_68" data-name="Rectangle 68" class="cls-6" x="34.21" y="343.71" width="384.3" height="60.55" rx="5.37"/><g id="Group_127" data-name="Group 127" class="cls-7"><path id="Path_56" data-name="Path 56" class="cls-8" d="M88.12,112.69a4.05,4.05,0,0,1-6.64,4.58"/><circle id="Ellipse_12" data-name="Ellipse 12" class="cls-8" cx="98.08" cy="114.66" r="4.05"/><circle id="Ellipse_13" data-name="Ellipse 13" class="cls-8" cx="111.58" cy="114.66" r="4.05"/><circle id="Ellipse_14" data-name="Ellipse 14" class="cls-8" cx="125.08" cy="114.66" r="4.05"/><circle id="Ellipse_15" data-name="Ellipse 15" class="cls-8" cx="138.57" cy="114.66" r="4.05"/><circle id="Ellipse_16" data-name="Ellipse 16" class="cls-8" cx="152.07" cy="114.66" r="4.05"/><circle id="Ellipse_17" data-name="Ellipse 17" class="cls-8" cx="165.57" cy="114.66" r="4.05"/><path id="Path_57" data-name="Path 57" class="cls-8" d="M183.12,114.82a4.05,4.05,0,1,1-7.29-2.59"/><path id="Path_58" data-name="Path 58" class="cls-8" d="M193,118.69l-.41,0a4.06,4.06,0,0,1-3.07-1.4"/><path id="Path_59" data-name="Path 59" class="cls-8" d="M344.18,112.09a4.05,4.05,0,0,1-6.28,5.13,4.11,4.11,0,0,1-.82-1.74l0,0a40.2,40.2,0,0,1,7.07-3.37Z"/><path id="Path_60" data-name="Path 60" class="cls-8" d="M358.2,112.9a18.16,18.16,0,0,0-2.54-1.06,19.64,19.64,0,0,1-2.6-.72l-.17,0a1.33,1.33,0,0,1-.28,0,4,4,0,1,0,6,3.54A4,4,0,0,0,358.2,112.9Z"/><path id="Path_61" data-name="Path 61" class="cls-8" d="M68.3,133.52a4.05,4.05,0,0,0,5.57-5.89,4.22,4.22,0,0,0-1.38-.86"/><circle id="Ellipse_18" data-name="Ellipse 18" class="cls-8" cx="84.58" cy="130.58" r="4.05"/><circle id="Ellipse_19" data-name="Ellipse 19" class="cls-8" cx="98.08" cy="130.58" r="4.05"/><circle id="Ellipse_20" data-name="Ellipse 20" class="cls-8" cx="111.58" cy="130.58" r="4.05"/><circle id="Ellipse_21" data-name="Ellipse 21" class="cls-8" cx="125.08" cy="130.58" r="4.05"/><circle id="Ellipse_22" data-name="Ellipse 22" class="cls-8" cx="138.57" cy="130.58" r="4.05"/><circle id="Ellipse_23" data-name="Ellipse 23" class="cls-8" cx="152.07" cy="130.58" r="4.05"/><circle id="Ellipse_24" data-name="Ellipse 24" class="cls-8" cx="165.57" cy="130.58" r="4.05"/><circle id="Ellipse_25" data-name="Ellipse 25" class="cls-8" cx="179.07" cy="130.58" r="4.05"/><circle id="Ellipse_26" data-name="Ellipse 26" class="cls-8" cx="192.57" cy="130.58" r="4.05"/><circle id="Ellipse_27" data-name="Ellipse 27" class="cls-8" cx="206.07" cy="130.58" r="4.05"/><path id="Path_62" data-name="Path 62" class="cls-8" d="M223.62,130.58a4.06,4.06,0,0,1-8.11,0,4.14,4.14,0,0,1,.89-2.52"/><path id="Path_63" data-name="Path 63" class="cls-8" d="M235.21,134a4.06,4.06,0,0,1-5.59-1.29,3.9,3.9,0,0,1-.19-.35"/><circle id="Ellipse_28" data-name="Ellipse 28" class="cls-8" cx="327.55" cy="130.58" r="4.05"/><circle id="Ellipse_29" data-name="Ellipse 29" class="cls-8" cx="341.05" cy="130.58" r="4.05"/><circle id="Ellipse_30" data-name="Ellipse 30" class="cls-8" cx="354.55" cy="130.58" r="4.05"/><path id="Path_64" data-name="Path 64" class="cls-8" d="M370.48,132.75c-.11-.21-.21-.42-.3-.64a15.64,15.64,0,0,1-.51-1.93,36.74,36.74,0,0,0-1.31-3.64H368a4.05,4.05,0,1,0,0,8.1,4,4,0,0,0,2.58-.92A1.45,1.45,0,0,1,370.48,132.75Z"/><circle id="Ellipse_31" data-name="Ellipse 31" class="cls-8" cx="71.08" cy="146.49" r="4.05"/><circle id="Ellipse_32" data-name="Ellipse 32" class="cls-8" cx="84.58" cy="146.49" r="4.05"/><circle id="Ellipse_33" data-name="Ellipse 33" class="cls-8" cx="98.08" cy="146.49" r="4.05"/><circle id="Ellipse_34" data-name="Ellipse 34" class="cls-8" cx="111.58" cy="146.49" r="4.05"/><circle id="Ellipse_35" data-name="Ellipse 35" class="cls-8" cx="125.08" cy="146.49" r="4.05"/><circle id="Ellipse_36" data-name="Ellipse 36" class="cls-8" cx="138.57" cy="146.49" r="4.05"/><circle id="Ellipse_37" data-name="Ellipse 37" class="cls-8" cx="152.07" cy="146.49" r="4.05"/><circle id="Ellipse_38" data-name="Ellipse 38" class="cls-8" cx="165.57" cy="146.49" r="4.05"/><circle id="Ellipse_39" data-name="Ellipse 39" class="cls-8" cx="179.07" cy="146.49" r="4.05"/><circle id="Ellipse_40" data-name="Ellipse 40" class="cls-8" cx="192.57" cy="146.49" r="4.05"/><circle id="Ellipse_41" data-name="Ellipse 41" class="cls-8" cx="206.07" cy="146.49" r="4.05"/><circle id="Ellipse_42" data-name="Ellipse 42" class="cls-8" cx="219.56" cy="146.49" r="4.05"/><circle id="Ellipse_43" data-name="Ellipse 43" class="cls-8" cx="233.06" cy="146.49" r="4.05"/><circle id="Ellipse_44" data-name="Ellipse 44" class="cls-8" cx="246.56" cy="146.49" r="4.05"/><circle id="Ellipse_45" data-name="Ellipse 45" class="cls-8" cx="260.06" cy="146.49" r="4.05"/><circle id="Ellipse_46" data-name="Ellipse 46" class="cls-8" cx="273.56" cy="146.49" r="4.05"/><circle id="Ellipse_47" data-name="Ellipse 47" class="cls-8" cx="287.05" cy="146.49" r="4.05"/><circle id="Ellipse_48" data-name="Ellipse 48" class="cls-8" cx="300.55" cy="146.49" r="4.05"/><circle id="Ellipse_49" data-name="Ellipse 49" class="cls-8" cx="314.05" cy="146.49" r="4.05"/><circle id="Ellipse_50" data-name="Ellipse 50" class="cls-8" cx="327.55" cy="146.49" r="4.05"/><circle id="Ellipse_51" data-name="Ellipse 51" class="cls-8" cx="341.05" cy="146.49" r="4.05"/><circle id="Ellipse_52" data-name="Ellipse 52" class="cls-8" cx="354.55" cy="146.49" r="4.05"/><circle id="Ellipse_53" data-name="Ellipse 53" class="cls-8" cx="368.04" cy="146.49" r="4.05"/><circle id="Ellipse_54" data-name="Ellipse 54" class="cls-8" cx="71.08" cy="162.41" r="4.05"/><circle id="Ellipse_55" data-name="Ellipse 55" class="cls-8" cx="84.58" cy="162.41" r="4.05"/><path id="Path_65" data-name="Path 65" class="cls-8" d="M60.71,160.06a4.05,4.05,0,0,1-.44,5.22"/><circle id="Ellipse_56" data-name="Ellipse 56" class="cls-8" cx="98.08" cy="162.41" r="4.05"/><circle id="Ellipse_57" data-name="Ellipse 57" class="cls-8" cx="111.58" cy="162.41" r="4.05"/><circle id="Ellipse_58" data-name="Ellipse 58" class="cls-8" cx="125.08" cy="162.41" r="4.05"/><circle id="Ellipse_59" data-name="Ellipse 59" class="cls-8" cx="138.57" cy="162.41" r="4.05"/><circle id="Ellipse_60" data-name="Ellipse 60" class="cls-8" cx="152.07" cy="162.41" r="4.05"/><circle id="Ellipse_61" data-name="Ellipse 61" class="cls-8" cx="165.57" cy="162.41" r="4.05"/><circle id="Ellipse_62" data-name="Ellipse 62" class="cls-8" cx="179.07" cy="162.41" r="4.05"/><circle id="Ellipse_63" data-name="Ellipse 63" class="cls-8" cx="192.57" cy="162.41" r="4.05"/><circle id="Ellipse_64" data-name="Ellipse 64" class="cls-8" cx="206.07" cy="162.41" r="4.05"/><circle id="Ellipse_65" data-name="Ellipse 65" class="cls-8" cx="219.56" cy="162.41" r="4.05"/><circle id="Ellipse_66" data-name="Ellipse 66" class="cls-8" cx="233.06" cy="162.41" r="4.05"/><circle id="Ellipse_67" data-name="Ellipse 67" class="cls-8" cx="246.56" cy="162.41" r="4.05"/><circle id="Ellipse_68" data-name="Ellipse 68" class="cls-8" cx="260.06" cy="162.41" r="4.05"/><circle id="Ellipse_69" data-name="Ellipse 69" class="cls-8" cx="273.56" cy="162.41" r="4.05"/><circle id="Ellipse_70" data-name="Ellipse 70" class="cls-8" cx="287.05" cy="162.41" r="4.05"/><circle id="Ellipse_71" data-name="Ellipse 71" class="cls-8" cx="300.55" cy="162.41" r="4.05"/><circle id="Ellipse_72" data-name="Ellipse 72" class="cls-8" cx="314.05" cy="162.41" r="4.05"/><circle id="Ellipse_73" data-name="Ellipse 73" class="cls-8" cx="327.55" cy="162.41" r="4.05"/><circle id="Ellipse_74" data-name="Ellipse 74" class="cls-8" cx="341.05" cy="162.41" r="4.05"/><circle id="Ellipse_75" data-name="Ellipse 75" class="cls-8" cx="354.55" cy="162.41" r="4.05"/><circle id="Ellipse_76" data-name="Ellipse 76" class="cls-8" cx="368.04" cy="162.41" r="4.05"/><circle id="Ellipse_77" data-name="Ellipse 77" class="cls-8" cx="71.08" cy="178.33" r="4.05"/><circle id="Ellipse_78" data-name="Ellipse 78" class="cls-8" cx="84.58" cy="178.33" r="4.05"/><path id="Path_66" data-name="Path 66" class="cls-8" d="M60.11,175.31a4,4,0,0,1,.31,5.72l-.27.28"/><circle id="Ellipse_79" data-name="Ellipse 79" class="cls-8" cx="98.08" cy="178.33" r="4.05"/><circle id="Ellipse_80" data-name="Ellipse 80" class="cls-8" cx="111.58" cy="178.33" r="4.05"/><circle id="Ellipse_81" data-name="Ellipse 81" class="cls-8" cx="125.08" cy="178.33" r="4.05"/><circle id="Ellipse_82" data-name="Ellipse 82" class="cls-8" cx="138.57" cy="178.33" r="4.05"/><circle id="Ellipse_83" data-name="Ellipse 83" class="cls-8" cx="152.07" cy="178.33" r="4.05"/><circle id="Ellipse_84" data-name="Ellipse 84" class="cls-8" cx="165.57" cy="178.33" r="4.05"/><circle id="Ellipse_85" data-name="Ellipse 85" class="cls-8" cx="179.07" cy="178.33" r="4.05"/><circle id="Ellipse_86" data-name="Ellipse 86" class="cls-8" cx="192.57" cy="178.33" r="4.05"/><circle id="Ellipse_87" data-name="Ellipse 87" class="cls-8" cx="206.07" cy="178.33" r="4.05"/><circle id="Ellipse_88" data-name="Ellipse 88" class="cls-8" cx="219.56" cy="178.33" r="4.05"/><circle id="Ellipse_89" data-name="Ellipse 89" class="cls-8" cx="233.06" cy="178.33" r="4.05"/><circle id="Ellipse_90" data-name="Ellipse 90" class="cls-8" cx="246.56" cy="178.33" r="4.05"/><circle id="Ellipse_91" data-name="Ellipse 91" class="cls-8" cx="260.06" cy="178.33" r="4.05"/><circle id="Ellipse_92" data-name="Ellipse 92" class="cls-8" cx="273.56" cy="178.33" r="4.05"/><circle id="Ellipse_93" data-name="Ellipse 93" class="cls-8" cx="287.05" cy="178.33" r="4.05"/><circle id="Ellipse_94" data-name="Ellipse 94" class="cls-8" cx="300.55" cy="178.33" r="4.05"/><circle id="Ellipse_95" data-name="Ellipse 95" class="cls-8" cx="314.05" cy="178.33" r="4.05"/><circle id="Ellipse_96" data-name="Ellipse 96" class="cls-8" cx="327.55" cy="178.33" r="4.05"/><circle id="Ellipse_97" data-name="Ellipse 97" class="cls-8" cx="341.05" cy="178.33" r="4.05"/><circle id="Ellipse_98" data-name="Ellipse 98" class="cls-8" cx="354.55" cy="178.33" r="4.05"/><circle id="Ellipse_99" data-name="Ellipse 99" class="cls-8" cx="368.04" cy="178.33" r="4.05"/><circle id="Ellipse_100" data-name="Ellipse 100" class="cls-8" cx="71.08" cy="194.25" r="4.05"/><circle id="Ellipse_101" data-name="Ellipse 101" class="cls-8" cx="84.58" cy="194.25" r="4.05"/><circle id="Ellipse_102" data-name="Ellipse 102" class="cls-8" cx="98.08" cy="194.25" r="4.05"/><circle id="Ellipse_103" data-name="Ellipse 103" class="cls-8" cx="111.58" cy="194.25" r="4.05"/><circle id="Ellipse_104" data-name="Ellipse 104" class="cls-8" cx="125.08" cy="194.25" r="4.05"/><circle id="Ellipse_105" data-name="Ellipse 105" class="cls-8" cx="138.57" cy="194.25" r="4.05"/><circle id="Ellipse_106" data-name="Ellipse 106" class="cls-8" cx="152.07" cy="194.25" r="4.05"/><circle id="Ellipse_107" data-name="Ellipse 107" class="cls-8" cx="165.57" cy="194.25" r="4.05"/><circle id="Ellipse_108" data-name="Ellipse 108" class="cls-8" cx="179.07" cy="194.25" r="4.05"/><circle id="Ellipse_109" data-name="Ellipse 109" class="cls-8" cx="192.57" cy="194.25" r="4.05"/><circle id="Ellipse_110" data-name="Ellipse 110" class="cls-8" cx="206.07" cy="194.25" r="4.05"/><circle id="Ellipse_111" data-name="Ellipse 111" class="cls-8" cx="219.56" cy="194.25" r="4.05"/><circle id="Ellipse_112" data-name="Ellipse 112" class="cls-8" cx="233.06" cy="194.25" r="4.05"/><circle id="Ellipse_113" data-name="Ellipse 113" class="cls-8" cx="246.56" cy="194.25" r="4.05"/><circle id="Ellipse_114" data-name="Ellipse 114" class="cls-8" cx="260.06" cy="194.25" r="4.05"/><circle id="Ellipse_115" data-name="Ellipse 115" class="cls-8" cx="273.56" cy="194.25" r="4.05"/><circle id="Ellipse_116" data-name="Ellipse 116" class="cls-8" cx="287.05" cy="194.25" r="4.05"/><circle id="Ellipse_117" data-name="Ellipse 117" class="cls-8" cx="300.55" cy="194.25" r="4.05"/><circle id="Ellipse_118" data-name="Ellipse 118" class="cls-8" cx="314.05" cy="194.25" r="4.05"/><circle id="Ellipse_119" data-name="Ellipse 119" class="cls-8" cx="327.55" cy="194.25" r="4.05"/><circle id="Ellipse_120" data-name="Ellipse 120" class="cls-8" cx="341.05" cy="194.25" r="4.05"/><circle id="Ellipse_121" data-name="Ellipse 121" class="cls-8" cx="354.55" cy="194.25" r="4.05"/><circle id="Ellipse_122" data-name="Ellipse 122" class="cls-8" cx="368.04" cy="194.25" r="4.05"/><circle id="Ellipse_123" data-name="Ellipse 123" class="cls-8" cx="71.08" cy="210.16" r="4.05"/><circle id="Ellipse_124" data-name="Ellipse 124" class="cls-8" cx="84.58" cy="210.16" r="4.05"/><circle id="Ellipse_125" data-name="Ellipse 125" class="cls-8" cx="98.08" cy="210.16" r="4.05"/><circle id="Ellipse_126" data-name="Ellipse 126" class="cls-8" cx="111.58" cy="210.16" r="4.05"/><circle id="Ellipse_127" data-name="Ellipse 127" class="cls-8" cx="125.08" cy="210.16" r="4.05"/><circle id="Ellipse_128" data-name="Ellipse 128" class="cls-8" cx="138.57" cy="210.16" r="4.05"/><circle id="Ellipse_129" data-name="Ellipse 129" class="cls-8" cx="152.07" cy="210.16" r="4.05"/><circle id="Ellipse_130" data-name="Ellipse 130" class="cls-8" cx="165.57" cy="210.16" r="4.05"/><circle id="Ellipse_131" data-name="Ellipse 131" class="cls-8" cx="179.07" cy="210.16" r="4.05"/><circle id="Ellipse_132" data-name="Ellipse 132" class="cls-8" cx="192.57" cy="210.16" r="4.05"/><circle id="Ellipse_133" data-name="Ellipse 133" class="cls-8" cx="206.07" cy="210.16" r="4.05"/><circle id="Ellipse_134" data-name="Ellipse 134" class="cls-8" cx="219.56" cy="210.16" r="4.05"/><circle id="Ellipse_135" data-name="Ellipse 135" class="cls-8" cx="233.06" cy="210.16" r="4.05"/><circle id="Ellipse_136" data-name="Ellipse 136" class="cls-8" cx="246.56" cy="210.16" r="4.05"/><circle id="Ellipse_137" data-name="Ellipse 137" class="cls-8" cx="260.06" cy="210.16" r="4.05"/><circle id="Ellipse_138" data-name="Ellipse 138" class="cls-8" cx="273.56" cy="210.16" r="4.05"/><circle id="Ellipse_139" data-name="Ellipse 139" class="cls-8" cx="287.05" cy="210.16" r="4.05"/><circle id="Ellipse_140" data-name="Ellipse 140" class="cls-8" cx="300.55" cy="210.16" r="4.05"/><circle id="Ellipse_141" data-name="Ellipse 141" class="cls-8" cx="314.05" cy="210.16" r="4.05"/><circle id="Ellipse_142" data-name="Ellipse 142" class="cls-8" cx="327.55" cy="210.16" r="4.05"/><circle id="Ellipse_143" data-name="Ellipse 143" class="cls-8" cx="341.05" cy="210.16" r="4.05"/><circle id="Ellipse_144" data-name="Ellipse 144" class="cls-8" cx="354.55" cy="210.16" r="4.05"/><circle id="Ellipse_145" data-name="Ellipse 145" class="cls-8" cx="368.04" cy="210.16" r="4.05"/><circle id="Ellipse_146" data-name="Ellipse 146" class="cls-8" cx="71.08" cy="226.08" r="4.05"/><circle id="Ellipse_147" data-name="Ellipse 147" class="cls-8" cx="84.58" cy="226.08" r="4.05"/><circle id="Ellipse_148" data-name="Ellipse 148" class="cls-8" cx="98.08" cy="226.08" r="4.05"/><circle id="Ellipse_149" data-name="Ellipse 149" class="cls-8" cx="111.58" cy="226.08" r="4.05"/><circle id="Ellipse_150" data-name="Ellipse 150" class="cls-8" cx="125.08" cy="226.08" r="4.05"/><circle id="Ellipse_151" data-name="Ellipse 151" class="cls-8" cx="138.57" cy="226.08" r="4.05"/><circle id="Ellipse_152" data-name="Ellipse 152" class="cls-8" cx="152.07" cy="226.08" r="4.05"/><path id="Path_67" data-name="Path 67" class="cls-8" d="M167.17,227.54c.84-.76,1.5-1.7,2.33-2.44a4.06,4.06,0,1,0-4.75,5"/><path id="Path_68" data-name="Path 68" class="cls-8" d="M314.05,222a4,4,0,0,0-4.05,4.05,2.42,2.42,0,0,0,0,.38,1.18,1.18,0,0,1,.47.54l.15.16.67.84c.22.29.48.6.69.9s.21.48.35.65.13.19.18.28a4,4,0,0,0,1.52.3,4.05,4.05,0,1,0,0-8.1Z"/><circle id="Ellipse_153" data-name="Ellipse 153" class="cls-8" cx="327.55" cy="226.08" r="4.05"/><circle id="Ellipse_154" data-name="Ellipse 154" class="cls-8" cx="341.05" cy="226.08" r="4.05"/><circle id="Ellipse_155" data-name="Ellipse 155" class="cls-8" cx="354.55" cy="226.08" r="4.05"/><circle id="Ellipse_156" data-name="Ellipse 156" class="cls-8" cx="368.04" cy="226.08" r="4.05"/><path id="Path_69" data-name="Path 69" class="cls-8" d="M71.81,246a4.06,4.06,0,0,0-1.57-8l-.4.1Z"/><circle id="Ellipse_157" data-name="Ellipse 157" class="cls-8" cx="84.58" cy="242" r="4.05"/><circle id="Ellipse_158" data-name="Ellipse 158" class="cls-8" cx="98.08" cy="242" r="4.05"/><circle id="Ellipse_159" data-name="Ellipse 159" class="cls-8" cx="111.58" cy="242" r="4.05"/><circle id="Ellipse_160" data-name="Ellipse 160" class="cls-8" cx="125.08" cy="242" r="4.05"/><circle id="Ellipse_161" data-name="Ellipse 161" class="cls-8" cx="138.57" cy="242" r="4.05"/><circle id="Ellipse_162" data-name="Ellipse 162" class="cls-8" cx="152.07" cy="242" r="4.05"/><circle id="Ellipse_163" data-name="Ellipse 163" class="cls-8" cx="327.55" cy="242" r="4.05"/><circle id="Ellipse_164" data-name="Ellipse 164" class="cls-8" cx="341.05" cy="242" r="4.05"/><circle id="Ellipse_165" data-name="Ellipse 165" class="cls-8" cx="354.55" cy="242" r="4.05"/><circle id="Ellipse_166" data-name="Ellipse 166" class="cls-8" cx="368.04" cy="242" r="4.05"/><path id="Path_70" data-name="Path 70" class="cls-8" d="M72.54,254.13a4.06,4.06,0,0,1-.39,7.7"/><circle id="Ellipse_167" data-name="Ellipse 167" class="cls-8" cx="84.58" cy="257.92" r="4.05"/><circle id="Ellipse_168" data-name="Ellipse 168" class="cls-8" cx="98.08" cy="257.92" r="4.05"/><circle id="Ellipse_169" data-name="Ellipse 169" class="cls-8" cx="111.58" cy="257.92" r="4.05"/><circle id="Ellipse_170" data-name="Ellipse 170" class="cls-8" cx="125.08" cy="257.92" r="4.05"/><circle id="Ellipse_171" data-name="Ellipse 171" class="cls-8" cx="138.57" cy="257.92" r="4.05"/><path id="Path_71" data-name="Path 71" class="cls-8" d="M155.1,255a4,4,0,1,0-1,6.61"/><path id="Path_72" data-name="Path 72" class="cls-8" d="M327.56,253.87a4.06,4.06,0,0,0-4,3.74,1.38,1.38,0,0,1,.09.39,8.2,8.2,0,0,0,.72,2.35,4.05,4.05,0,1,0,3.23-6.48Z"/><circle id="Ellipse_172" data-name="Ellipse 172" class="cls-8" cx="341.05" cy="257.92" r="4.05"/><circle id="Ellipse_173" data-name="Ellipse 173" class="cls-8" cx="354.55" cy="257.92" r="4.05"/><path id="Path_73" data-name="Path 73" class="cls-8" d="M371.76,259.27c.06-.28.1-.55.16-.83,0-.12.06-.24.08-.36a.18.18,0,0,1,0-.1s0,0,0-.1a1.41,1.41,0,0,1,.05-.35,4,4,0,1,0-.33,2.05A3,3,0,0,1,371.76,259.27Z"/><path id="Path_74" data-name="Path 74" class="cls-8" d="M71,269.78h.06a4.06,4.06,0,0,1,0,8.11,4,4,0,0,1-1.57-.32"/><circle id="Ellipse_174" data-name="Ellipse 174" class="cls-8" cx="84.58" cy="273.83" r="4.05"/><circle id="Ellipse_175" data-name="Ellipse 175" class="cls-8" cx="98.08" cy="273.83" r="4.05"/><circle id="Ellipse_176" data-name="Ellipse 176" class="cls-8" cx="111.58" cy="273.83" r="4.05"/><circle id="Ellipse_177" data-name="Ellipse 177" class="cls-8" cx="125.08" cy="273.83" r="4.05"/><circle id="Ellipse_178" data-name="Ellipse 178" class="cls-8" cx="138.57" cy="273.83" r="4.05"/><path id="Path_75" data-name="Path 75" class="cls-8" d="M153.56,277.61a4.05,4.05,0,0,1-2.95-7.55,4,4,0,0,1,2.81-.05"/><path id="Path_76" data-name="Path 76" class="cls-8" d="M327.31,269.74c-.16,0,2,6.59,2.39,7.52a4,4,0,0,0,1.9-3.43A4.28,4.28,0,0,0,327.31,269.74Z"/><circle id="Ellipse_179" data-name="Ellipse 179" class="cls-8" cx="341.05" cy="273.83" r="4.05"/><circle id="Ellipse_180" data-name="Ellipse 180" class="cls-8" cx="354.55" cy="273.83" r="4.05"/><path id="Path_77" data-name="Path 77" class="cls-8" d="M368.81,273.69c.21-.79.5-1.56.7-2.35,0-.09,0-.17.05-.26l.06-.69a1,1,0,0,1,0-.25,3.93,3.93,0,0,0-1.62-.35,4.05,4.05,0,0,0-.57,8.06c.11-.29.23-.58.35-.87C368.07,275.86,368.51,274.77,368.81,273.69Z"/><circle id="Ellipse_181" data-name="Ellipse 181" class="cls-8" cx="71.08" cy="289.75" r="4.05"/><circle id="Ellipse_182" data-name="Ellipse 182" class="cls-8" cx="84.58" cy="289.75" r="4.05"/><circle id="Ellipse_183" data-name="Ellipse 183" class="cls-8" cx="98.08" cy="289.75" r="4.05"/><circle id="Ellipse_184" data-name="Ellipse 184" class="cls-8" cx="111.58" cy="289.75" r="4.05"/><circle id="Ellipse_185" data-name="Ellipse 185" class="cls-8" cx="125.08" cy="289.75" r="4.05"/><circle id="Ellipse_186" data-name="Ellipse 186" class="cls-8" cx="138.57" cy="289.75" r="4.05"/><path id="Path_78" data-name="Path 78" class="cls-8" d="M155.9,291.08a4.05,4.05,0,1,1-2.49-5.16,3.89,3.89,0,0,1,1.37.81"/><circle id="Ellipse_187" data-name="Ellipse 187" class="cls-8" cx="341.05" cy="289.75" r="4.05"/><circle id="Ellipse_188" data-name="Ellipse 188" class="cls-8" cx="354.55" cy="289.75" r="4.05"/><circle id="Ellipse_189" data-name="Ellipse 189" class="cls-8" cx="71.08" cy="305.67" r="4.05"/><circle id="Ellipse_190" data-name="Ellipse 190" class="cls-8" cx="84.58" cy="305.67" r="4.05"/><circle id="Ellipse_191" data-name="Ellipse 191" class="cls-8" cx="98.08" cy="305.67" r="4.05"/><circle id="Ellipse_192" data-name="Ellipse 192" class="cls-8" cx="111.58" cy="305.67" r="4.05"/><circle id="Ellipse_193" data-name="Ellipse 193" class="cls-8" cx="125.08" cy="305.67" r="4.05"/><circle id="Ellipse_194" data-name="Ellipse 194" class="cls-8" cx="138.57" cy="305.67" r="4.05"/><circle id="Ellipse_195" data-name="Ellipse 195" class="cls-8" cx="152.07" cy="305.67" r="4.05"/><path id="Path_79" data-name="Path 79" class="cls-8" d="M166.25,309.45a4.06,4.06,0,0,1-4.27-6.77"/><path id="Path_80" data-name="Path 80" class="cls-8" d="M59.3,317.91a4.06,4.06,0,0,1-1.56,7.73"/><circle id="Ellipse_196" data-name="Ellipse 196" class="cls-8" cx="71.08" cy="321.59" r="4.05"/><circle id="Ellipse_197" data-name="Ellipse 197" class="cls-8" cx="84.58" cy="321.59" r="4.05"/><circle id="Ellipse_198" data-name="Ellipse 198" class="cls-8" cx="98.08" cy="321.59" r="4.05"/><circle id="Ellipse_199" data-name="Ellipse 199" class="cls-8" cx="111.58" cy="321.59" r="4.05"/><circle id="Ellipse_200" data-name="Ellipse 200" class="cls-8" cx="125.08" cy="321.59" r="4.05"/><circle id="Ellipse_201" data-name="Ellipse 201" class="cls-8" cx="138.57" cy="321.59" r="4.05"/><circle id="Ellipse_202" data-name="Ellipse 202" class="cls-8" cx="152.07" cy="321.59" r="4.05"/><circle id="Ellipse_203" data-name="Ellipse 203" class="cls-8" cx="165.57" cy="321.59" r="4.05"/><path id="Path_81" data-name="Path 81" class="cls-8" d="M56.59,333.58a4,4,0,1,1-.44,7.72"/><circle id="Ellipse_204" data-name="Ellipse 204" class="cls-8" cx="71.08" cy="337.5" r="4.05"/><circle id="Ellipse_205" data-name="Ellipse 205" class="cls-8" cx="84.58" cy="337.5" r="4.05"/><circle id="Ellipse_206" data-name="Ellipse 206" class="cls-8" cx="98.08" cy="337.5" r="4.05"/><circle id="Ellipse_207" data-name="Ellipse 207" class="cls-8" cx="111.58" cy="337.5" r="4.05"/><circle id="Ellipse_208" data-name="Ellipse 208" class="cls-8" cx="125.08" cy="337.5" r="4.05"/><circle id="Ellipse_209" data-name="Ellipse 209" class="cls-8" cx="138.57" cy="337.5" r="4.05"/><circle id="Ellipse_210" data-name="Ellipse 210" class="cls-8" cx="152.07" cy="337.5" r="4.05"/><circle id="Ellipse_211" data-name="Ellipse 211" class="cls-8" cx="165.57" cy="337.5" r="4.05"/></g><circle id="Ellipse_212" data-name="Ellipse 212" class="cls-3" cx="124.9" cy="168.91" r="42.05"/><circle id="Ellipse_213" data-name="Ellipse 213" class="cls-3" cx="349.1" cy="246.43" r="13.68"/><circle id="Ellipse_214" data-name="Ellipse 214" class="cls-4" cx="349.1" cy="246.43" r="7.09"/><path id="Path_82" data-name="Path 82" class="cls-9" d="M381,344A25.33,25.33,0,0,1,401.2,354.1c11.18,14.87,34.71,29.37,35.8,32.68.38,1.14,0,4.3-6.56,4.49-33.94,1-94.9,46.55-112.58,46.93-25.67.56-82.51-63.58-90.36-72.7-6.2-7.2-3.88-9.5,8.7-15.64a58.67,58.67,0,0,1,25.63-5.9Z"/><path id="Path_83" data-name="Path 83" class="cls-3" d="M117.09,41.24h4.85a.86.86,0,0,1,.87.86h0v62h-6.59v-62a.86.86,0,0,1,.86-.86Z"/><rect id="Rectangle_69" data-name="Rectangle 69" class="cls-5" x="113.94" y="53.4" width="11.15" height="4.05"/><rect id="Rectangle_70" data-name="Rectangle 70" class="cls-10" x="107.61" y="57.45" width="23.81" height="41.29" rx="5.9"/></g></g></g></g></svg>