<svg xmlns="http://www.w3.org/2000/svg" xmlns:xlink="http://www.w3.org/1999/xlink" viewBox="0 0 141.53 133.99"><defs><style>.cls-1{fill:none;}.cls-2{clip-path:url(#clip-path);}.cls-3{fill:#3296a0;}.cls-4{fill:#be4e62;}.cls-5{fill:#c8c8c8;}.cls-6{fill:#fdc00f;}.cls-7{fill:#969696;}.cls-8{fill:#dcdcdc;}.cls-9{fill:#ffd21e;}</style><clipPath id="clip-path"><rect class="cls-1" width="141.53" height="133.99"/></clipPath></defs><g id="Vrstva_2" data-name="Vrstva 2"><g id="Vrstva_1-2" data-name="Vrstva 1"><g class="cls-2"><g id="Group_298" data-name="Group 298"><path id="Path_323" data-name="Path 323" class="cls-3" d="M137.68,58.17A3.86,3.86,0,0,1,133.83,62h-9.15V31.69h9.15a3.85,3.85,0,0,1,3.85,3.85h0Z"/><path id="Path_324" data-name="Path 324" class="cls-4" d="M136.23,68.51a9.62,9.62,0,0,1-9.62-9.62V33.38A9.63,9.63,0,0,0,117,23.75H9.63A9.63,9.63,0,0,0,0,33.38V76.7a7.7,7.7,0,0,0,7.7,7.7h26A15.9,15.9,0,0,1,49.58,68.51H79.19a7.7,7.7,0,0,1,7.7,7.7h0V108h50.54V68.51Z"/><rect id="Rectangle_190" data-name="Rectangle 190" class="cls-3" x="31.7" y="31.69" width="86.97" height="27.2"/><path id="Path_325" data-name="Path 325" class="cls-5" d="M141.53,134H0V113.77a7.7,7.7,0,0,1,7.7-7.7H133.83a7.7,7.7,0,0,1,7.7,7.7Z"/><path id="Path_326" data-name="Path 326" class="cls-6" d="M72,44.93a8.43,8.43,0,1,1-8.43-8.43A8.43,8.43,0,0,1,72,44.93"/><path id="Path_327" data-name="Path 327" class="cls-6" d="M106.94,44.93a8.43,8.43,0,1,1-8.42-8.43,8.43,8.43,0,0,1,8.42,8.43"/><rect id="Rectangle_191" data-name="Rectangle 191" class="cls-6" x="22.39" y="2.81" width="11.31" height="20.94"/><rect id="Rectangle_192" data-name="Rectangle 192" class="cls-6" x="98.52" y="78.62" width="28.09" height="5.78"/><rect id="Rectangle_193" data-name="Rectangle 193" class="cls-6" x="98.52" y="94.75" width="28.09" height="5.78"/><rect id="Rectangle_194" data-name="Rectangle 194" class="cls-3" x="11.07" y="84.4" width="18.53" height="6.26"/><path id="Path_328" data-name="Path 328" class="cls-5" d="M24.31,90.66l-1.92,15.4-1.93-15.4Z"/><rect id="Rectangle_195" data-name="Rectangle 195" class="cls-7" x="24.39" width="7.3" height="2.81"/><path id="Path_329" data-name="Path 329" class="cls-8" d="M.1,112.8H141.43a7.66,7.66,0,0,0-7.6-6.73H7.7A7.66,7.66,0,0,0,.1,112.8"/><path id="Path_330" data-name="Path 330" class="cls-9" d="M56.49,49.52a8.12,8.12,0,0,0,1.11,1.37A7.72,7.72,0,0,0,59,52L70.61,40.35A8.19,8.19,0,0,0,69.5,39a8.85,8.85,0,0,0-1.39-1.12Z"/><path id="Path_331" data-name="Path 331" class="cls-9" d="M92,39.58a8.21,8.21,0,0,0-1.62,3.14L105,50.28a8.71,8.71,0,0,0,1-1.49,8,8,0,0,0,.63-1.65Z"/><rect id="Rectangle_196" data-name="Rectangle 196" class="cls-3" x="15.53" y="23.75" width="9.63" height="52.39"/><rect id="Rectangle_197" data-name="Rectangle 197" class="cls-9" x="28.05" y="2.81" width="5.65" height="20.94"/></g></g></g></g></svg>