<svg xmlns="http://www.w3.org/2000/svg" xmlns:xlink="http://www.w3.org/1999/xlink" viewBox="0 0 140.42 95.34"><defs><style>.cls-1{fill:none;}.cls-2{opacity:0.38;}.cls-3{clip-path:url(#clip-path);}.cls-4{fill:#dcdcdc;}.cls-5{fill:#5dc1d4;}.cls-6{fill:#fdc00f;}.cls-7{fill:#3296a0;}.cls-8{fill:#ffd21e;}</style><clipPath id="clip-path" transform="translate(-27.85 -40.9)"><rect class="cls-1" x="10.93" y="30.52" width="147.41" height="83.21" transform="translate(-24.35 50.07) rotate(-29)"/></clipPath></defs><g id="Vrstva_2" data-name="Vrstva 2"><g id="Vrstva_1-2" data-name="Vrstva 1"><g id="Vrstva_2-2" data-name="Vrstva 2" class="cls-2"><g id="Vrstva_1-2-2" data-name="Vrstva 1-2"><g id="Group_267" data-name="Group 267"><g class="cls-3"><g id="Group_266" data-name="Group 266"><path id="Path_279" data-name="Path 279" class="cls-4" d="M51.39,135.38c.64,1.15,2.88,1.14,5,0L165.44,74.9c2.1-1.16,3.3-3.06,2.66-4.21l-.09-.18c-.64-1.15-2.88-1.14-5,0L54,131c-2.11,1.16-3.31,3.06-2.67,4.22Z" transform="translate(-27.85 -40.9)"/><path id="Path_280" data-name="Path 280" class="cls-5" d="M32.63,53.37C76.78,28.9,150.87,57.19,163,70.53L54.67,130.59c-3.29-5.93-26.82-8.86-26.82-8.86Zm22.23,39.7,52.67-29.2a55.34,55.34,0,0,0-26.25-8.49c-8.57-.6-26.44-2.14-35.8,13.32-5.26,8.69,9.38,24.37,9.38,24.37" transform="translate(-27.85 -40.9)"/><path id="Path_281" data-name="Path 281" class="cls-6" d="M38.71,114.57a7.18,7.18,0,1,0,2.8-9.77,7.18,7.18,0,0,0-2.8,9.77h0" transform="translate(-27.85 -40.9)"/><rect id="Rectangle_175" data-name="Rectangle 175" class="cls-7" x="61.01" y="73.62" width="24" height="8.78" transform="translate(-56.52 4.27) rotate(-29)"/><path id="Path_282" data-name="Path 282" class="cls-7" d="M134.88,77a1.61,1.61,0,0,0,.61-2.18,1.51,1.51,0,0,0-.82-.71l-16-6.11a6.43,6.43,0,0,0-5.37.39L60.59,97.65A3.19,3.19,0,0,0,59.35,102h0L65,112.11a3.2,3.2,0,0,0,4.34,1.25h0Z" transform="translate(-27.85 -40.9)"/><rect id="Rectangle_176" data-name="Rectangle 176" class="cls-6" x="113.83" y="35.3" width="6.35" height="23.15" transform="translate(14.45 107.5) rotate(-75.49)"/><path id="Path_283" data-name="Path 283" class="cls-8" d="M49.9,116.3a6.47,6.47,0,0,1-3.09,1.7l-6.72-12.13a6.58,6.58,0,0,1,3.08-1.71Z" transform="translate(-27.85 -40.9)"/></g></g></g></g></g></g></g></svg>