<svg xmlns="http://www.w3.org/2000/svg" xmlns:xlink="http://www.w3.org/1999/xlink" viewBox="0 0 135 135"><defs><style>.cls-1{fill:none;}.cls-2{clip-path:url(#clip-path);}.cls-3{fill:#ffde17;}.cls-4{opacity:0.6;}.cls-5{clip-path:url(#clip-path-3);}.cls-6{clip-path:url(#clip-path-4);}.cls-7{fill:url(#Nepojmenovaný_přechod_8);}.cls-8{fill:#3296a0;}.cls-9{fill:#3ca0aa;}.cls-10{fill:#5dc1d4;}.cls-11{fill:#fdc00f;}.cls-12{fill:#fff;}</style><clipPath id="clip-path" transform="translate(0 0)"><rect class="cls-1" width="135" height="135"/></clipPath><clipPath id="clip-path-3" transform="translate(0 0)"><rect class="cls-1" x="32.86" y="25.65" width="102.14" height="108.61"/></clipPath><clipPath id="clip-path-4" transform="translate(0 0)"><path class="cls-1" d="M135,67.5a67.51,67.51,0,0,1-57.51,66.76h0L60.2,117.8l.19-36.44-.56-20-27-27,4-7.35c4.06,1.89,13.43,9.37,13.43,9.37L71.24,56.77a66.9,66.9,0,0,0,6.33-8.28c2.39-3.9,13.37-13,13.37-13l8.83-4.77-.6-5.06,35.55,35.68q.28,3,.28,6.17"/></clipPath><linearGradient id="Nepojmenovaný_přechod_8" x1="-5450.5" y1="228.56" x2="-5450.49" y2="228.56" gradientTransform="matrix(102.14, 0, 0, -108.61, 556719.8, 24903.58)" gradientUnits="userSpaceOnUse"><stop offset="0" stop-color="#a0a0a0"/><stop offset="1" stop-color="#dcdcdc"/></linearGradient></defs><g id="Vrstva_2" data-name="Vrstva 2"><g id="Vrstva_1-2" data-name="Vrstva 1"><g id="Group_159" data-name="Group 159"><g class="cls-2"><g id="Group_158" data-name="Group 158"><g id="Group_157" data-name="Group 157"><g class="cls-2"><g id="Group_156" data-name="Group 156"><path id="Path_94" data-name="Path 94" class="cls-3" d="M135,67.5a67.51,67.51,0,0,1-57.51,66.76h0a65.35,65.35,0,0,1-10,.74,67.5,67.5,0,1,1,67.22-73.67q.28,3,.28,6.17" transform="translate(0 0)"/><g id="Group_155" data-name="Group 155" class="cls-4"><g id="Group_154" data-name="Group 154"><g class="cls-5"><g id="Group_153" data-name="Group 153"><g id="Group_152" data-name="Group 152"><g class="cls-6"><g id="Group_151" data-name="Group 151"><rect id="Rectangle_76" data-name="Rectangle 76" class="cls-7" x="32.86" y="25.65" width="102.14" height="108.61"/></g></g></g></g></g></g></g><path id="Path_96" data-name="Path 96" class="cls-8" d="M66.15,77.59,66.1,76a34.83,34.83,0,0,0-.26-3.5c-.07-.84-.22-1.67-.35-2.4-.07-.4-.13-.77-.18-1.1L65,67.46l1.17-.27.37,1.57c.06.37.12.73.18,1.11.14.76.29,1.62.37,2.49.13,1.19.26,2.56.26,3.6l0,1.6Z" transform="translate(0 0)"/><path id="Path_97" data-name="Path 97" class="cls-8" d="M70.86,74.75,71,77.57H62.56l-.08-2.34Z" transform="translate(0 0)"/><path id="Path_98" data-name="Path 98" class="cls-8" d="M70.2,69.12s.12.7.23,1.4.18,1.41.18,1.41l-8.34,1a9,9,0,0,0-.15-1.16c-.1-.58-.19-1.16-.19-1.16Z" transform="translate(0 0)"/><path id="Path_99" data-name="Path 99" class="cls-8" d="M65.54,67.92,65,67.44a39.49,39.49,0,0,0-1.46-4.87,41.77,41.77,0,0,0-2-4.67l-.13-.27.12-.29,1.08.53L62,57.6l.54-.26a44.62,44.62,0,0,1,2.06,4.83,43,43,0,0,1,1.5,5Z" transform="translate(0 0)"/><path id="Path_100" data-name="Path 100" class="cls-8" d="M68.89,63.61l.4,1.36c.18.68.33,1.37.33,1.37l-8.16,1.94s-.13-.57-.27-1.14L60.85,66Z" transform="translate(0 0)"/><path id="Path_101" data-name="Path 101" class="cls-8" d="M67,58.3s.28.65.55,1.3L68,60.93,60.12,63.8s-.21-.55-.41-1.1-.46-1.08-.46-1.08Z" transform="translate(0 0)"/><path id="Path_102" data-name="Path 102" class="cls-8" d="M61.48,57.86s-.28-.58-.72-1.41l-.38-.68c-.41-.72-.87-1.55-1.4-2.34s-1-1.56-1.49-2.23l-.5-.71-1-1.26,1-.73,1.48,2c.48.68,1,1.45,1.52,2.28s1,1.65,1.43,2.4l.38.67c.48.89.76,1.49.76,1.49Z" transform="translate(0 0)"/><path id="Path_103" data-name="Path 103" class="cls-8" d="M64.46,53.26l.69,1.22c.31.63.63,1.26.63,1.26l-7.52,3.73s-.26-.53-.53-1.06l-.58-1Z" transform="translate(0 0)"/><path id="Path_104" data-name="Path 104" class="cls-8" d="M61.48,48.53l.8,1.15L63,50.86l-7.09,4.48-.64-1-.69-1Z" transform="translate(0 0)"/><path id="Path_105" data-name="Path 105" class="cls-8" d="M56,49.22a50.89,50.89,0,0,0-3.3-3.9c-1.72-1.87-3.6-3.62-3.62-3.64l.82-.87s1.94,1.8,3.69,3.7c3.71,4,3.51,4.44,3.44,4.6Z" transform="translate(0 0)"/><path id="Path_106" data-name="Path 106" class="cls-8" d="M58.09,44.14,59,45.21c.45.53.86,1.09.86,1.09l-6.64,5.13s-.35-.48-.74-.94l-.77-.92Z" transform="translate(0 0)"/><path id="Path_107" data-name="Path 107" class="cls-8" d="M54.35,40.07l1,1c.48.49.95,1,.95,1l-6.18,5.69s-.4-.45-.83-.88L48.41,46Z" transform="translate(0 0)"/><path id="Path_108" data-name="Path 108" class="cls-8" d="M49.52,41.84l-.42-.17c-.32-.3-2-1.89-3.88-3.34-2-1.62-4.08-3.07-4.1-3.08l.34-.49-.26-.55c.27-.13.53-.24,4.78,3.19,1.86,1.47,3.61,3.08,3.94,3.4Z" transform="translate(0 0)"/><path id="Path_109" data-name="Path 109" class="cls-8" d="M50.33,36.34s.52.44,1,.9l1,.92-5.71,6.15-.9-.81-.91-.81Z" transform="translate(0 0)"/><path id="Path_110" data-name="Path 110" class="cls-8" d="M46.07,32.91l1.09.83c.54.41,1.07.85,1.07.85L43,41.13s-.47-.39-1-.76-1-.74-1-.74Z" transform="translate(0 0)"/><path id="Path_111" data-name="Path 111" class="cls-8" d="M41.11,35.25s-2.12-1.5-4.3-2.8c-1-.62-2.16-1.26-3.07-1.74S32.33,30,32.32,30l.51-1.09s.6.28,1.47.74,2.07,1.14,3.13,1.77c2.22,1.33,4.35,2.83,4.38,2.85Z" transform="translate(0 0)"/><path id="Path_112" data-name="Path 112" class="cls-8" d="M41.6,29.79l1.14.75,1.12.78-4.8,6.88-1-.7-1-.67Z" transform="translate(0 0)"/><path id="Path_113" data-name="Path 113" class="cls-8" d="M36.9,27l1.2.67,1.18.7L35,35.54l-1.05-.61-1.06-.6Z" transform="translate(0 0)"/><path id="Path_114" data-name="Path 114" class="cls-9" d="M67.35,77.59l-1.2,0,.06-1.61c0-1,.13-2.39.26-3.6.08-.86.23-1.72.36-2.47.07-.39.13-.74.18-1.07l.37-1.62,1.17.27L68.18,69c0,.28-.1.65-.17,1-.13.74-.27,1.57-.35,2.39-.13,1.18-.25,2.51-.26,3.5Z" transform="translate(0 0)"/><path id="Path_115" data-name="Path 115" class="cls-9" d="M63.31,69.12s.1-.7.26-1.39l.32-1.38,8.17,1.94s-.14.57-.27,1.14-.21,1.15-.21,1.15Z" transform="translate(0 0)"/><path id="Path_116" data-name="Path 116" class="cls-9" d="M62.65,74.75s0-.18,0-.44.06-.62.1-1l.14-1.41,8.34,1-.12,1.17c0,.29-.05.58-.07.8a1.91,1.91,0,0,0,0,.36Z" transform="translate(0 0)"/><path id="Path_117" data-name="Path 117" class="cls-9" d="M68,67.92l-.58-.74A46.42,46.42,0,0,1,71,57.36l.54.25.54-.27v.56a45.69,45.69,0,0,0-2,4.66,44.08,44.08,0,0,0-1.46,4.88l-.11.47Z" transform="translate(0 0)"/><path id="Path_118" data-name="Path 118" class="cls-9" d="M66.55,58.3,67.11,57l.63-1.27,7.51,3.73-.52,1.06c-.23.54-.47,1.08-.47,1.08Z" transform="translate(0 0)"/><path id="Path_119" data-name="Path 119" class="cls-9" d="M64.61,63.61,65,62.25l.48-1.33L73.4,63.8,73,64.89,72.66,66Z" transform="translate(0 0)"/><path id="Path_120" data-name="Path 120" class="cls-9" d="M72,57.86,71,57.35s.28-.6.74-1.47l.4-.69c.41-.75.89-1.59,1.44-2.42s1-1.57,1.5-2.26l.5-.7,1-1.31,1,.73-1.47,2c-.46.66-1,1.41-1.47,2.2s-1,1.64-1.41,2.37l-.38.68c-.44.82-.71,1.4-.71,1.4" transform="translate(0 0)"/><path id="Path_121" data-name="Path 121" class="cls-9" d="M72,48.53l.8-1.13.84-1.1,6.64,5.13s-.36.48-.73,1l-.68,1Z" transform="translate(0 0)"/><path id="Path_122" data-name="Path 122" class="cls-9" d="M69.05,53.26,69.74,52l.74-1.18,7.1,4.48-.64,1-.58,1Z" transform="translate(0 0)"/><path id="Path_123" data-name="Path 123" class="cls-9" d="M77.48,49.22l-1-.12c-.07-.16-.27-.63,3.45-4.6,1.75-1.9,3.66-3.68,3.68-3.7l.82.88s-1.9,1.77-3.62,3.63-3.28,3.89-3.3,3.91" transform="translate(0 0)"/><path id="Path_124" data-name="Path 124" class="cls-9" d="M79.15,40.07l2-1.9,5.71,6.15L85.1,46Z" transform="translate(0 0)"/><path id="Path_125" data-name="Path 125" class="cls-9" d="M75.42,44.14s.44-.54.9-1l.93-1,6.17,5.68-.81.9c-.41.44-.78.91-.78.91Z" transform="translate(0 0)"/><path id="Path_126" data-name="Path 126" class="cls-9" d="M84,41.84l-.41-1c.34-.32,2.09-1.93,4-3.41,4.25-3.42,4.5-3.31,4.78-3.18l-.26.54.34.5s-2.1,1.46-4.1,3.08c-1.84,1.46-3.56,3-3.88,3.34l-.17.16Z" transform="translate(0 0)"/><path id="Path_127" data-name="Path 127" class="cls-9" d="M87.43,32.91l1.1-.8,1.12-.8,4.8,6.89-1,.71-1,.72Z" transform="translate(0 0)"/><path id="Path_128" data-name="Path 128" class="cls-9" d="M83.17,36.34l1-.89,1.06-.86,5.26,6.54-1,.77-.93.79Z" transform="translate(0 0)"/><path id="Path_129" data-name="Path 129" class="cls-9" d="M92.39,35.25l-.69-1s2.16-1.52,4.38-2.85c1.06-.63,2.2-1.28,3.12-1.77s1.48-.74,1.48-.74l.5,1.09s-.58.27-1.42.71-2,1.12-3.06,1.74c-2.18,1.3-4.29,2.78-4.31,2.8" transform="translate(0 0)"/><path id="Path_130" data-name="Path 130" class="cls-9" d="M96.61,27l1.23-.66c.62-.33,1.27-.64,1.34-.66l3.51,7.62-1,.49-1.06.56Z" transform="translate(0 0)"/><path id="Path_131" data-name="Path 131" class="cls-9" d="M91.91,29.79l1.15-.74,1.17-.71,4.32,7.2-1,.64-1,.66Z" transform="translate(0 0)"/><rect id="Rectangle_78" data-name="Rectangle 78" class="cls-8" x="63.8" y="82.57" width="1.2" height="9.39"/><rect id="Rectangle_79" data-name="Rectangle 79" class="cls-8" x="60.2" y="82.57" width="8.39" height="2.35"/><rect id="Rectangle_80" data-name="Rectangle 80" class="cls-8" x="60.2" y="87.27" width="8.39" height="2.35"/><rect id="Rectangle_81" data-name="Rectangle 81" class="cls-8" x="68.52" y="82.57" width="1.2" height="9.39"/><rect id="Rectangle_82" data-name="Rectangle 82" class="cls-8" x="64.92" y="89.61" width="8.39" height="2.35"/><rect id="Rectangle_83" data-name="Rectangle 83" class="cls-8" x="64.92" y="84.92" width="8.39" height="2.35"/><rect id="Rectangle_84" data-name="Rectangle 84" class="cls-8" x="63.8" y="91.96" width="1.2" height="9.39"/><rect id="Rectangle_85" data-name="Rectangle 85" class="cls-8" x="60.2" y="91.96" width="8.39" height="2.35"/><rect id="Rectangle_86" data-name="Rectangle 86" class="cls-8" x="60.2" y="96.66" width="8.39" height="2.35"/><rect id="Rectangle_87" data-name="Rectangle 87" class="cls-9" x="68.52" y="91.96" width="1.2" height="9.39"/><rect id="Rectangle_88" data-name="Rectangle 88" class="cls-9" x="64.92" y="99.01" width="8.39" height="2.35"/><rect id="Rectangle_89" data-name="Rectangle 89" class="cls-9" x="64.92" y="94.31" width="8.39" height="2.35"/><rect id="Rectangle_90" data-name="Rectangle 90" class="cls-8" x="63.8" y="101.36" width="1.2" height="9.39"/><rect id="Rectangle_91" data-name="Rectangle 91" class="cls-8" x="60.2" y="101.36" width="8.39" height="2.35"/><rect id="Rectangle_92" data-name="Rectangle 92" class="cls-8" x="60.2" y="106.05" width="8.39" height="2.35"/><rect id="Rectangle_93" data-name="Rectangle 93" class="cls-9" x="68.52" y="101.36" width="1.2" height="9.39"/><rect id="Rectangle_94" data-name="Rectangle 94" class="cls-9" x="64.92" y="108.4" width="8.39" height="2.35"/><rect id="Rectangle_95" data-name="Rectangle 95" class="cls-9" x="64.92" y="103.7" width="8.39" height="2.35"/><rect id="Rectangle_96" data-name="Rectangle 96" class="cls-8" x="63.8" y="110.75" width="1.2" height="9.4"/><rect id="Rectangle_97" data-name="Rectangle 97" class="cls-8" x="60.2" y="110.75" width="8.39" height="2.35"/><rect id="Rectangle_98" data-name="Rectangle 98" class="cls-8" x="60.2" y="115.45" width="8.39" height="2.35"/><rect id="Rectangle_99" data-name="Rectangle 99" class="cls-9" x="68.52" y="110.75" width="1.2" height="9.4"/><rect id="Rectangle_100" data-name="Rectangle 100" class="cls-9" x="64.92" y="117.8" width="8.39" height="2.35"/><rect id="Rectangle_101" data-name="Rectangle 101" class="cls-9" x="64.92" y="113.1" width="8.39" height="2.35"/><path id="Path_132" data-name="Path 132" class="cls-10" d="M73.13,81.37H60.38l-1.2-19.59H74.32Z" transform="translate(0 0)"/><path id="Path_133" data-name="Path 133" class="cls-11" d="M72.15,89.56c0,7.94-2.41,9.58-5.4,9.58s-5.39-1.64-5.39-9.58S63.77,68,66.75,68s5.4,13.63,5.4,21.58" transform="translate(0 0)"/><rect id="Rectangle_102" data-name="Rectangle 102" class="cls-8" x="64.4" y="65.38" width="4.7" height="11.99"/><path id="Path_134" data-name="Path 134" class="cls-12" d="M69.45,93.66a2.7,2.7,0,1,1-2.7-2.7h0a2.7,2.7,0,0,1,2.7,2.7" transform="translate(0 0)"/></g></g></g></g></g></g></g></g></svg>